solid CATIA STL
  facet normal  0.000000e+000  0.000000e+000 -1.000000e+000
    outer loop
      vertex  2.539724e+001 -3.915485e+001  1.643897e+001
      vertex  2.401945e+001 -3.934908e+001  1.643897e+001
      vertex  2.401945e+001 -3.689959e+001  1.643897e+001
    endloop
  endfacet
  facet normal  0.000000e+000  0.000000e+000 -1.000000e+000
    outer loop
      vertex -1.354883e+001  2.301688e+000  1.643897e+001
      vertex -1.599832e+001  3.118185e+000  1.643897e+001
      vertex -1.436533e+001  4.751178e+000  1.643897e+001
    endloop
  endfacet
  facet normal  -0.000000e+000  0.000000e+000 -1.000000e+000
    outer loop
      vertex  2.401945e+001  4.751178e+000  1.643897e+001
      vertex  2.565244e+001  3.118185e+000  1.643897e+001
      vertex  2.320295e+001  2.301688e+000  1.643897e+001
    endloop
  endfacet
  facet normal  -0.000000e+000  0.000000e+000 -9.999999e-001
    outer loop
      vertex  2.320295e+001 -3.445010e+001  1.643897e+001
      vertex  2.565244e+001 -3.526659e+001  1.643897e+001
      vertex  2.401945e+001 -3.689959e+001  1.643897e+001
    endloop
  endfacet
  facet normal  -0.000000e+000  -0.000000e+000 -1.000000e+000
    outer loop
      vertex -1.436533e+001 -3.689959e+001  1.643897e+001
      vertex  2.401945e+001 -3.689959e+001  1.643897e+001
      vertex  2.401945e+001 -3.934908e+001  1.643897e+001
    endloop
  endfacet
  facet normal  0.000000e+000  0.000000e+000 -1.000000e+000
    outer loop
      vertex -1.436533e+001 -3.689959e+001  1.643897e+001
      vertex  2.401945e+001 -3.934908e+001  1.643897e+001
      vertex -1.436533e+001 -3.934908e+001  1.643897e+001
    endloop
  endfacet
  facet normal  0.000000e+000  0.000000e+000 -1.000000e+000
    outer loop
      vertex -1.436533e+001 -3.689959e+001  1.643897e+001
      vertex -1.436533e+001 -3.934908e+001  1.643897e+001
      vertex -1.624549e+001 -3.896696e+001  1.643897e+001
    endloop
  endfacet
  facet normal  0.000000e+000  0.000000e+000 -9.999999e-001
    outer loop
      vertex -1.436533e+001 -3.689959e+001  1.643897e+001
      vertex -1.624549e+001 -3.896696e+001  1.643897e+001
      vertex -1.768568e+001 -3.780194e+001  1.643897e+001
    endloop
  endfacet
  facet normal  0.000000e+000  0.000000e+000 -1.000000e+000
    outer loop
      vertex -1.436533e+001 -3.689959e+001  1.643897e+001
      vertex -1.768568e+001 -3.780194e+001  1.643897e+001
      vertex -1.825359e+001 -3.664439e+001  1.643897e+001
    endloop
  endfacet
  facet normal  0.000000e+000  0.000000e+000 -1.000000e+000
    outer loop
      vertex -1.436533e+001 -3.689959e+001  1.643897e+001
      vertex -1.825359e+001 -3.664439e+001  1.643897e+001
      vertex -1.844781e+001 -3.526659e+001  1.643897e+001
    endloop
  endfacet
  facet normal  0.000000e+000  0.000000e+000 -1.000000e+000
    outer loop
      vertex -1.436533e+001 -3.689959e+001  1.643897e+001
      vertex -1.844781e+001 -3.526659e+001  1.643897e+001
      vertex -1.599832e+001 -3.526659e+001  1.643897e+001
    endloop
  endfacet
  facet normal  0.000000e+000  0.000000e+000 -9.999999e-001
    outer loop
      vertex -1.436533e+001 -3.689959e+001  1.643897e+001
      vertex -1.599832e+001 -3.526659e+001  1.643897e+001
      vertex -1.354883e+001 -3.445010e+001  1.643897e+001
    endloop
  endfacet
  facet normal  0.000000e+000  0.000000e+000 -9.999999e-001
    outer loop
      vertex  2.810193e+001  3.118185e+000  1.643897e+001
      vertex  2.401945e+001  4.751178e+000  1.643897e+001
      vertex  2.771981e+001  4.998339e+000  1.643897e+001
    endloop
  endfacet
  facet normal  -0.000000e+000  0.000000e+000 -1.000000e+000
    outer loop
      vertex  2.771981e+001  4.998339e+000  1.643897e+001
      vertex  2.401945e+001  4.751178e+000  1.643897e+001
      vertex  2.539724e+001  7.006443e+000  1.643897e+001
    endloop
  endfacet
  facet normal  0.000000e+000  0.000000e+000 -1.000000e+000
    outer loop
      vertex  2.771981e+001  4.998339e+000  1.643897e+001
      vertex  2.539724e+001  7.006443e+000  1.643897e+001
      vertex  2.655480e+001  6.438534e+000  1.643897e+001
    endloop
  endfacet
  facet normal  0.000000e+000  0.000000e+000 -1.000000e+000
    outer loop
      vertex  2.401945e+001  4.751178e+000  1.643897e+001
      vertex  2.810193e+001  3.118185e+000  1.643897e+001
      vertex  2.565244e+001  3.118185e+000  1.643897e+001
    endloop
  endfacet
  facet normal  0.000000e+000  0.000000e+000 -1.000000e+000
    outer loop
      vertex  2.565244e+001  3.118185e+000  1.643897e+001
      vertex  2.810193e+001  3.118185e+000  1.643897e+001
      vertex  2.810193e+001 -3.526659e+001  1.643897e+001
    endloop
  endfacet
  facet normal  0.000000e+000  0.000000e+000 -1.000000e+000
    outer loop
      vertex  2.565244e+001  3.118185e+000  1.643897e+001
      vertex  2.810193e+001 -3.526659e+001  1.643897e+001
      vertex  2.565244e+001 -3.526659e+001  1.643897e+001
    endloop
  endfacet
  facet normal  0.000000e+000  0.000000e+000 -1.000000e+000
    outer loop
      vertex  2.565244e+001 -3.526659e+001  1.643897e+001
      vertex  2.810193e+001 -3.526659e+001  1.643897e+001
      vertex  2.771981e+001 -3.714675e+001  1.643897e+001
    endloop
  endfacet
  facet normal  0.000000e+000  0.000000e+000 -1.000000e+000
    outer loop
      vertex  2.565244e+001 -3.526659e+001  1.643897e+001
      vertex  2.771981e+001 -3.714675e+001  1.643897e+001
      vertex  2.401945e+001 -3.689959e+001  1.643897e+001
    endloop
  endfacet
  facet normal  0.000000e+000  0.000000e+000 -1.000000e+000
    outer loop
      vertex  2.401945e+001 -3.689959e+001  1.643897e+001
      vertex  2.771981e+001 -3.714675e+001  1.643897e+001
      vertex  2.655480e+001 -3.858694e+001  1.643897e+001
    endloop
  endfacet
  facet normal  -0.000000e+000  0.000000e+000 -9.999999e-001
    outer loop
      vertex  2.401945e+001 -3.689959e+001  1.643897e+001
      vertex  2.655480e+001 -3.858694e+001  1.643897e+001
      vertex  2.539724e+001 -3.915485e+001  1.643897e+001
    endloop
  endfacet
  facet normal  0.000000e+000  0.000000e+000 -1.000000e+000
    outer loop
      vertex  2.539724e+001  7.006443e+000  1.643897e+001
      vertex  2.401945e+001  4.751178e+000  1.643897e+001
      vertex  2.401945e+001  7.200667e+000  1.643897e+001
    endloop
  endfacet
  facet normal  0.000000e+000  -0.000000e+000 -1.000000e+000
    outer loop
      vertex  2.401945e+001  7.200667e+000  1.643897e+001
      vertex  2.401945e+001  4.751178e+000  1.643897e+001
      vertex -1.436533e+001  4.751178e+000  1.643897e+001
    endloop
  endfacet
  facet normal  0.000000e+000  0.000000e+000 -1.000000e+000
    outer loop
      vertex  2.401945e+001  7.200667e+000  1.643897e+001
      vertex -1.436533e+001  4.751178e+000  1.643897e+001
      vertex -1.436533e+001  7.200667e+000  1.643897e+001
    endloop
  endfacet
  facet normal  0.000000e+000  -0.000000e+000 -1.000000e+000
    outer loop
      vertex -1.436533e+001  7.200667e+000  1.643897e+001
      vertex -1.436533e+001  4.751178e+000  1.643897e+001
      vertex -1.768568e+001  5.653540e+000  1.643897e+001
    endloop
  endfacet
  facet normal  0.000000e+000  0.000000e+000 -1.000000e+000
    outer loop
      vertex -1.436533e+001  7.200667e+000  1.643897e+001
      vertex -1.768568e+001  5.653540e+000  1.643897e+001
      vertex -1.624549e+001  6.818552e+000  1.643897e+001
    endloop
  endfacet
  facet normal  -0.000000e+000  0.000000e+000 -1.000000e+000
    outer loop
      vertex -1.768568e+001  5.653540e+000  1.643897e+001
      vertex -1.436533e+001  4.751178e+000  1.643897e+001
      vertex -1.825359e+001  4.495983e+000  1.643897e+001
    endloop
  endfacet
  facet normal  0.000000e+000  0.000000e+000 -1.000000e+000
    outer loop
      vertex -1.825359e+001  4.495983e+000  1.643897e+001
      vertex -1.436533e+001  4.751178e+000  1.643897e+001
      vertex -1.599832e+001  3.118185e+000  1.643897e+001
    endloop
  endfacet
  facet normal  0.000000e+000  0.000000e+000 -1.000000e+000
    outer loop
      vertex -1.825359e+001  4.495983e+000  1.643897e+001
      vertex -1.599832e+001  3.118185e+000  1.643897e+001
      vertex -1.844781e+001  3.118185e+000  1.643897e+001
    endloop
  endfacet
  facet normal  0.000000e+000  0.000000e+000 -1.000000e+000
    outer loop
      vertex -1.844781e+001  3.118185e+000  1.643897e+001
      vertex -1.599832e+001  3.118185e+000  1.643897e+001
      vertex -1.599832e+001 -3.526659e+001  1.643897e+001
    endloop
  endfacet
  facet normal  0.000000e+000  0.000000e+000 -1.000000e+000
    outer loop
      vertex -1.844781e+001  3.118185e+000  1.643897e+001
      vertex -1.599832e+001 -3.526659e+001  1.643897e+001
      vertex -1.844781e+001 -3.526659e+001  1.643897e+001
    endloop
  endfacet
  facet normal  -0.000000e+000  -0.000000e+000  1.000000e+000
    outer loop
      vertex -7.841212e+000 -2.465999e+001  3.143897e+001
      vertex -7.646987e+000 -2.603779e+001  3.143897e+001
      vertex -7.079079e+000 -2.719534e+001  3.143897e+001
    endloop
  endfacet
  facet normal  -0.000000e+000  -0.000000e+000  9.999999e-001
    outer loop
      vertex -7.841212e+000 -2.465999e+001  3.143897e+001
      vertex -7.079079e+000 -2.719534e+001  3.143897e+001
      vertex -5.638884e+000 -2.836036e+001  3.143897e+001
    endloop
  endfacet
  facet normal  -0.000000e+000  -0.000000e+000  1.000000e+000
    outer loop
      vertex -7.841212e+000 -2.465999e+001  3.143897e+001
      vertex -5.638884e+000 -2.836036e+001  3.143897e+001
      vertex -3.758729e+000 -2.874247e+001  3.143897e+001
    endloop
  endfacet
  facet normal  0.000000e+000  -0.000000e+000  1.000000e+000
    outer loop
      vertex -7.841212e+000 -2.465999e+001  3.143897e+001
      vertex -3.758729e+000 -2.874247e+001  3.143897e+001
      vertex -4.927432e-001 -2.139400e+001  3.143897e+001
    endloop
  endfacet
  facet normal  0.000000e+000  -0.000000e+000  1.000000e+000
    outer loop
      vertex -7.841212e+000 -2.465999e+001  3.143897e+001
      vertex -4.927432e-001 -2.139400e+001  3.143897e+001
      vertex -4.927432e-001 -1.075440e+001  3.143897e+001
    endloop
  endfacet
  facet normal  0.000000e+000  0.000000e+000  1.000000e+000
    outer loop
      vertex -7.841212e+000 -2.465999e+001  3.143897e+001
      vertex -4.927432e-001 -1.075440e+001  3.143897e+001
      vertex -7.841212e+000 -7.488417e+000  3.143897e+001
    endloop
  endfacet
  facet normal  -0.000000e+000  0.000000e+000  1.000000e+000
    outer loop
      vertex  1.014686e+001 -2.139400e+001  3.143897e+001
      vertex -4.927432e-001 -2.139400e+001  3.143897e+001
      vertex -3.758729e+000 -2.874247e+001  3.143897e+001
    endloop
  endfacet
  facet normal  0.000000e+000  0.000000e+000  1.000000e+000
    outer loop
      vertex  1.014686e+001 -2.139400e+001  3.143897e+001
      vertex -3.758729e+000 -2.874247e+001  3.143897e+001
      vertex  1.341284e+001 -2.874247e+001  3.143897e+001
    endloop
  endfacet
  facet normal  0.000000e+000  -0.000000e+000  1.000000e+000
    outer loop
      vertex  1.014686e+001 -2.139400e+001  3.143897e+001
      vertex  1.341284e+001 -2.874247e+001  3.143897e+001
      vertex  1.479064e+001 -2.854825e+001  3.143897e+001
    endloop
  endfacet
  facet normal  0.000000e+000  -0.000000e+000  1.000000e+000
    outer loop
      vertex  1.014686e+001 -2.139400e+001  3.143897e+001
      vertex  1.479064e+001 -2.854825e+001  3.143897e+001
      vertex  1.594820e+001 -2.798034e+001  3.143897e+001
    endloop
  endfacet
  facet normal  0.000000e+000  -0.000000e+000  1.000000e+000
    outer loop
      vertex  1.014686e+001 -2.139400e+001  3.143897e+001
      vertex  1.594820e+001 -2.798034e+001  3.143897e+001
      vertex  1.711321e+001 -2.654014e+001  3.143897e+001
    endloop
  endfacet
  facet normal  0.000000e+000  -0.000000e+000  1.000000e+000
    outer loop
      vertex  1.014686e+001 -2.139400e+001  3.143897e+001
      vertex  1.711321e+001 -2.654014e+001  3.143897e+001
      vertex  1.749533e+001 -2.465999e+001  3.143897e+001
    endloop
  endfacet
  facet normal  0.000000e+000  -0.000000e+000  1.000000e+000
    outer loop
      vertex  1.014686e+001 -2.139400e+001  3.143897e+001
      vertex  1.749533e+001 -2.465999e+001  3.143897e+001
      vertex  1.749533e+001 -7.488417e+000  3.143897e+001
    endloop
  endfacet
  facet normal  0.000000e+000  0.000000e+000  1.000000e+000
    outer loop
      vertex  1.014686e+001 -2.139400e+001  3.143897e+001
      vertex  1.749533e+001 -7.488417e+000  3.143897e+001
      vertex  1.014686e+001 -1.075440e+001  3.143897e+001
    endloop
  endfacet
  facet normal  0.000000e+000  0.000000e+000  1.000000e+000
    outer loop
      vertex -7.841212e+000 -7.488417e+000  3.143897e+001
      vertex -4.927432e-001 -1.075440e+001  3.143897e+001
      vertex -3.758729e+000 -3.405934e+000  3.143897e+001
    endloop
  endfacet
  facet normal  0.000000e+000  0.000000e+000  9.999999e-001
    outer loop
      vertex -7.841212e+000 -7.488417e+000  3.143897e+001
      vertex -3.758729e+000 -3.405934e+000  3.143897e+001
      vertex -5.638884e+000 -3.788050e+000  3.143897e+001
    endloop
  endfacet
  facet normal  0.000000e+000  0.000000e+000  1.000000e+000
    outer loop
      vertex -7.841212e+000 -7.488417e+000  3.143897e+001
      vertex -5.638884e+000 -3.788050e+000  3.143897e+001
      vertex -7.079079e+000 -4.953062e+000  3.143897e+001
    endloop
  endfacet
  facet normal  0.000000e+000  0.000000e+000  1.000000e+000
    outer loop
      vertex -7.841212e+000 -7.488417e+000  3.143897e+001
      vertex -7.079079e+000 -4.953062e+000  3.143897e+001
      vertex -7.646987e+000 -6.110619e+000  3.143897e+001
    endloop
  endfacet
  facet normal  0.000000e+000  0.000000e+000  1.000000e+000
    outer loop
      vertex  1.014686e+001 -1.075440e+001  3.143897e+001
      vertex  1.749533e+001 -7.488417e+000  3.143897e+001
      vertex  1.711321e+001 -5.608263e+000  3.143897e+001
    endloop
  endfacet
  facet normal  0.000000e+000  0.000000e+000  1.000000e+000
    outer loop
      vertex  1.014686e+001 -1.075440e+001  3.143897e+001
      vertex  1.711321e+001 -5.608263e+000  3.143897e+001
      vertex  1.594820e+001 -4.168067e+000  3.143897e+001
    endloop
  endfacet
  facet normal  0.000000e+000  0.000000e+000  1.000000e+000
    outer loop
      vertex  1.014686e+001 -1.075440e+001  3.143897e+001
      vertex  1.594820e+001 -4.168067e+000  3.143897e+001
      vertex  1.479064e+001 -3.600159e+000  3.143897e+001
    endloop
  endfacet
  facet normal  0.000000e+000  0.000000e+000  1.000000e+000
    outer loop
      vertex  1.014686e+001 -1.075440e+001  3.143897e+001
      vertex  1.479064e+001 -3.600159e+000  3.143897e+001
      vertex  1.341284e+001 -3.405934e+000  3.143897e+001
    endloop
  endfacet
  facet normal  0.000000e+000  0.000000e+000  1.000000e+000
    outer loop
      vertex  1.014686e+001 -1.075440e+001  3.143897e+001
      vertex  1.341284e+001 -3.405934e+000  3.143897e+001
      vertex -3.758729e+000 -3.405934e+000  3.143897e+001
    endloop
  endfacet
  facet normal  0.000000e+000  0.000000e+000  1.000000e+000
    outer loop
      vertex  1.014686e+001 -1.075440e+001  3.143897e+001
      vertex -3.758729e+000 -3.405934e+000  3.143897e+001
      vertex -4.927432e-001 -1.075440e+001  3.143897e+001
    endloop
  endfacet
  facet normal  0.000000e+000 -8.164965e-001  5.773503e-001
    outer loop
      vertex -3.758729e+000 -2.874247e+001  3.143897e+001
      vertex -1.436533e+001 -3.934908e+001  1.643897e+001
      vertex  1.341284e+001 -2.874247e+001  3.143897e+001
    endloop
  endfacet
  facet normal  0.000000e+000 -8.164966e-001  5.773503e-001
    outer loop
      vertex  1.341284e+001 -2.874247e+001  3.143897e+001
      vertex -1.436533e+001 -3.934908e+001  1.643897e+001
      vertex  2.401945e+001 -3.934908e+001  1.643897e+001
    endloop
  endfacet
  facet normal  8.164965e-001  0.000000e+000  5.773503e-001
    outer loop
      vertex  1.749533e+001 -2.465999e+001  3.143897e+001
      vertex  2.810193e+001 -3.526659e+001  1.643897e+001
      vertex  1.749533e+001 -7.488417e+000  3.143897e+001
    endloop
  endfacet
  facet normal  8.164966e-001  0.000000e+000  5.773503e-001
    outer loop
      vertex  1.749533e+001 -7.488417e+000  3.143897e+001
      vertex  2.810193e+001 -3.526659e+001  1.643897e+001
      vertex  2.810193e+001  3.118185e+000  1.643897e+001
    endloop
  endfacet
  facet normal  1.090589e-001 -7.736436e-001  6.241649e-001
    outer loop
      vertex  1.341284e+001 -2.874247e+001  3.143897e+001
      vertex  2.401945e+001 -3.934908e+001  1.643897e+001
      vertex  1.479064e+001 -2.854825e+001  3.143897e+001
    endloop
  endfacet
  facet normal  1.090589e-001 -7.736436e-001  6.241649e-001
    outer loop
      vertex  1.479064e+001 -2.854825e+001  3.143897e+001
      vertex  2.401945e+001 -3.934908e+001  1.643897e+001
      vertex  2.539724e+001 -3.915485e+001  1.643897e+001
    endloop
  endfacet
  facet normal  3.199261e-001 -6.520980e-001  6.873248e-001
    outer loop
      vertex  1.479064e+001 -2.854825e+001  3.143897e+001
      vertex  2.539724e+001 -3.915485e+001  1.643897e+001
      vertex  1.594820e+001 -2.798034e+001  3.143897e+001
    endloop
  endfacet
  facet normal  3.199261e-001 -6.520980e-001  6.873248e-001
    outer loop
      vertex  1.594820e+001 -2.798034e+001  3.143897e+001
      vertex  2.539724e+001 -3.915485e+001  1.643897e+001
      vertex  2.655480e+001 -3.858694e+001  1.643897e+001
    endloop
  endfacet
  facet normal  5.512784e-001 -4.459439e-001  7.051426e-001
    outer loop
      vertex  1.594820e+001 -2.798034e+001  3.143897e+001
      vertex  2.655480e+001 -3.858694e+001  1.643897e+001
      vertex  1.711321e+001 -2.654014e+001  3.143897e+001
    endloop
  endfacet
  facet normal  5.512781e-001 -4.459442e-001  7.051427e-001
    outer loop
      vertex  1.711321e+001 -2.654014e+001  3.143897e+001
      vertex  2.655480e+001 -3.858694e+001  1.643897e+001
      vertex  2.771981e+001 -3.714675e+001  1.643897e+001
    endloop
  endfacet
  facet normal  7.526685e-001 -1.529699e-001  6.403831e-001
    outer loop
      vertex  1.711321e+001 -2.654014e+001  3.143897e+001
      vertex  2.771981e+001 -3.714675e+001  1.643897e+001
      vertex  1.749533e+001 -2.465999e+001  3.143897e+001
    endloop
  endfacet
  facet normal  7.526686e-001 -1.529696e-001  6.403829e-001
    outer loop
      vertex  1.749533e+001 -2.465999e+001  3.143897e+001
      vertex  2.771981e+001 -3.714675e+001  1.643897e+001
      vertex  2.810193e+001 -3.526659e+001  1.643897e+001
    endloop
  endfacet
  facet normal -8.164966e-001  0.000000e+000  5.773503e-001
    outer loop
      vertex -1.844781e+001 -3.526659e+001  1.643897e+001
      vertex -7.841212e+000 -2.465999e+001  3.143897e+001
      vertex -1.844781e+001  3.118185e+000  1.643897e+001
    endloop
  endfacet
  facet normal -8.164965e-001  0.000000e+000  5.773503e-001
    outer loop
      vertex -1.844781e+001  3.118185e+000  1.643897e+001
      vertex -7.841212e+000 -2.465999e+001  3.143897e+001
      vertex -7.841212e+000 -7.488417e+000  3.143897e+001
    endloop
  endfacet
  facet normal -7.736438e-001 -1.090584e-001  6.241648e-001
    outer loop
      vertex -7.841212e+000 -2.465999e+001  3.143897e+001
      vertex -1.844781e+001 -3.526659e+001  1.643897e+001
      vertex -7.646987e+000 -2.603779e+001  3.143897e+001
    endloop
  endfacet
  facet normal -7.736436e-001 -1.090588e-001  6.241648e-001
    outer loop
      vertex -7.646987e+000 -2.603779e+001  3.143897e+001
      vertex -1.844781e+001 -3.526659e+001  1.643897e+001
      vertex -1.825359e+001 -3.664439e+001  1.643897e+001
    endloop
  endfacet
  facet normal -6.520980e-001 -3.199261e-001  6.873248e-001
    outer loop
      vertex -7.646987e+000 -2.603779e+001  3.143897e+001
      vertex -1.825359e+001 -3.664439e+001  1.643897e+001
      vertex -7.079079e+000 -2.719534e+001  3.143897e+001
    endloop
  endfacet
  facet normal -6.520978e-001 -3.199265e-001  6.873249e-001
    outer loop
      vertex -7.079079e+000 -2.719534e+001  3.143897e+001
      vertex -1.825359e+001 -3.664439e+001  1.643897e+001
      vertex -1.768568e+001 -3.780194e+001  1.643897e+001
    endloop
  endfacet
  facet normal -4.459439e-001 -5.512785e-001  7.051427e-001
    outer loop
      vertex -7.079079e+000 -2.719534e+001  3.143897e+001
      vertex -1.768568e+001 -3.780194e+001  1.643897e+001
      vertex -5.638884e+000 -2.836036e+001  3.143897e+001
    endloop
  endfacet
  facet normal -4.459439e-001 -5.512785e-001  7.051427e-001
    outer loop
      vertex -5.638884e+000 -2.836036e+001  3.143897e+001
      vertex -1.768568e+001 -3.780194e+001  1.643897e+001
      vertex -1.624549e+001 -3.896696e+001  1.643897e+001
    endloop
  endfacet
  facet normal -1.529699e-001 -7.526685e-001  6.403830e-001
    outer loop
      vertex -5.638884e+000 -2.836036e+001  3.143897e+001
      vertex -1.624549e+001 -3.896696e+001  1.643897e+001
      vertex -3.758729e+000 -2.874247e+001  3.143897e+001
    endloop
  endfacet
  facet normal -1.529706e-001 -7.526681e-001  6.403832e-001
    outer loop
      vertex -3.758729e+000 -2.874247e+001  3.143897e+001
      vertex -1.624549e+001 -3.896696e+001  1.643897e+001
      vertex -1.436533e+001 -3.934908e+001  1.643897e+001
    endloop
  endfacet
  facet normal  0.000000e+000  8.164966e-001  5.773503e-001
    outer loop
      vertex -1.436533e+001  7.200667e+000  1.643897e+001
      vertex -3.758729e+000 -3.405934e+000  3.143897e+001
      vertex  2.401945e+001  7.200667e+000  1.643897e+001
    endloop
  endfacet
  facet normal  0.000000e+000  8.164965e-001  5.773503e-001
    outer loop
      vertex  2.401945e+001  7.200667e+000  1.643897e+001
      vertex -3.758729e+000 -3.405934e+000  3.143897e+001
      vertex  1.341284e+001 -3.405934e+000  3.143897e+001
    endloop
  endfacet
  facet normal -7.736435e-001  1.090589e-001  6.241649e-001
    outer loop
      vertex -1.844781e+001  3.118185e+000  1.643897e+001
      vertex -7.841212e+000 -7.488417e+000  3.143897e+001
      vertex -1.825359e+001  4.495983e+000  1.643897e+001
    endloop
  endfacet
  facet normal -7.736438e-001  1.090584e-001  6.241648e-001
    outer loop
      vertex -1.825359e+001  4.495983e+000  1.643897e+001
      vertex -7.841212e+000 -7.488417e+000  3.143897e+001
      vertex -7.646987e+000 -6.110619e+000  3.143897e+001
    endloop
  endfacet
  facet normal -6.520980e-001  3.199261e-001  6.873248e-001
    outer loop
      vertex -1.825359e+001  4.495983e+000  1.643897e+001
      vertex -7.646987e+000 -6.110619e+000  3.143897e+001
      vertex -1.768568e+001  5.653540e+000  1.643897e+001
    endloop
  endfacet
  facet normal -6.520980e-001  3.199261e-001  6.873248e-001
    outer loop
      vertex -1.768568e+001  5.653540e+000  1.643897e+001
      vertex -7.646987e+000 -6.110619e+000  3.143897e+001
      vertex -7.079079e+000 -4.953062e+000  3.143897e+001
    endloop
  endfacet
  facet normal -4.459439e-001  5.512784e-001  7.051426e-001
    outer loop
      vertex -1.768568e+001  5.653540e+000  1.643897e+001
      vertex -7.079079e+000 -4.953062e+000  3.143897e+001
      vertex -1.624549e+001  6.818552e+000  1.643897e+001
    endloop
  endfacet
  facet normal -4.459439e-001  5.512784e-001  7.051426e-001
    outer loop
      vertex -1.624549e+001  6.818552e+000  1.643897e+001
      vertex -7.079079e+000 -4.953062e+000  3.143897e+001
      vertex -5.638884e+000 -3.788050e+000  3.143897e+001
    endloop
  endfacet
  facet normal -1.529699e-001  7.526685e-001  6.403831e-001
    outer loop
      vertex -1.624549e+001  6.818552e+000  1.643897e+001
      vertex -5.638884e+000 -3.788050e+000  3.143897e+001
      vertex -1.436533e+001  7.200667e+000  1.643897e+001
    endloop
  endfacet
  facet normal -1.529699e-001  7.526685e-001  6.403831e-001
    outer loop
      vertex -1.436533e+001  7.200667e+000  1.643897e+001
      vertex -5.638884e+000 -3.788050e+000  3.143897e+001
      vertex -3.758729e+000 -3.405934e+000  3.143897e+001
    endloop
  endfacet
  facet normal  1.090589e-001  7.736436e-001  6.241649e-001
    outer loop
      vertex  2.401945e+001  7.200667e+000  1.643897e+001
      vertex  1.341284e+001 -3.405934e+000  3.143897e+001
      vertex  2.539724e+001  7.006443e+000  1.643897e+001
    endloop
  endfacet
  facet normal  1.090589e-001  7.736436e-001  6.241649e-001
    outer loop
      vertex  2.539724e+001  7.006443e+000  1.643897e+001
      vertex  1.341284e+001 -3.405934e+000  3.143897e+001
      vertex  1.479064e+001 -3.600159e+000  3.143897e+001
    endloop
  endfacet
  facet normal  3.199257e-001  6.520984e-001  6.873248e-001
    outer loop
      vertex  2.539724e+001  7.006443e+000  1.643897e+001
      vertex  1.479064e+001 -3.600159e+000  3.143897e+001
      vertex  2.655480e+001  6.438534e+000  1.643897e+001
    endloop
  endfacet
  facet normal  3.199257e-001  6.520984e-001  6.873248e-001
    outer loop
      vertex  2.655480e+001  6.438534e+000  1.643897e+001
      vertex  1.479064e+001 -3.600159e+000  3.143897e+001
      vertex  1.594820e+001 -4.168067e+000  3.143897e+001
    endloop
  endfacet
  facet normal  5.512784e-001  4.459439e-001  7.051426e-001
    outer loop
      vertex  2.655480e+001  6.438534e+000  1.643897e+001
      vertex  1.594820e+001 -4.168067e+000  3.143897e+001
      vertex  2.771981e+001  4.998339e+000  1.643897e+001
    endloop
  endfacet
  facet normal  5.512784e-001  4.459439e-001  7.051426e-001
    outer loop
      vertex  2.771981e+001  4.998339e+000  1.643897e+001
      vertex  1.594820e+001 -4.168067e+000  3.143897e+001
      vertex  1.711321e+001 -5.608263e+000  3.143897e+001
    endloop
  endfacet
  facet normal  7.526685e-001  1.529698e-001  6.403830e-001
    outer loop
      vertex  2.771981e+001  4.998339e+000  1.643897e+001
      vertex  1.711321e+001 -5.608263e+000  3.143897e+001
      vertex  2.810193e+001  3.118185e+000  1.643897e+001
    endloop
  endfacet
  facet normal  7.526685e-001  1.529698e-001  6.403830e-001
    outer loop
      vertex  2.810193e+001  3.118185e+000  1.643897e+001
      vertex  1.711321e+001 -5.608263e+000  3.143897e+001
      vertex  1.749533e+001 -7.488417e+000  3.143897e+001
    endloop
  endfacet
  facet normal  0.000000e+000  8.164965e-001 -5.773503e-001
    outer loop
      vertex -1.109935e+001 -3.200061e+001  1.643897e+001
      vertex -4.927432e-001 -2.139400e+001  3.143897e+001
      vertex  2.075346e+001 -3.200061e+001  1.643897e+001
    endloop
  endfacet
  facet normal  0.000000e+000  8.164966e-001 -5.773504e-001
    outer loop
      vertex  2.075346e+001 -3.200061e+001  1.643897e+001
      vertex -4.927432e-001 -2.139400e+001  3.143897e+001
      vertex  1.014686e+001 -2.139400e+001  3.143897e+001
    endloop
  endfacet
  facet normal -8.164966e-001  0.000000e+000 -5.773503e-001
    outer loop
      vertex  2.075346e+001 -3.200061e+001  1.643897e+001
      vertex  1.014686e+001 -2.139400e+001  3.143897e+001
      vertex  2.075346e+001 -1.478017e-001  1.643897e+001
    endloop
  endfacet
  facet normal -8.164966e-001  0.000000e+000 -5.773503e-001
    outer loop
      vertex  2.075346e+001 -1.478017e-001  1.643897e+001
      vertex  1.014686e+001 -2.139400e+001  3.143897e+001
      vertex  1.014686e+001 -1.075440e+001  3.143897e+001
    endloop
  endfacet
  facet normal  0.000000e+000 -8.164966e-001 -5.773503e-001
    outer loop
      vertex  2.075346e+001 -1.478017e-001  1.643897e+001
      vertex  1.014686e+001 -1.075440e+001  3.143897e+001
      vertex -1.109935e+001 -1.478017e-001  1.643897e+001
    endloop
  endfacet
  facet normal  0.000000e+000 -8.164966e-001 -5.773503e-001
    outer loop
      vertex -1.109935e+001 -1.478017e-001  1.643897e+001
      vertex  1.014686e+001 -1.075440e+001  3.143897e+001
      vertex -4.927432e-001 -1.075440e+001  3.143897e+001
    endloop
  endfacet
  facet normal  8.164966e-001  0.000000e+000 -5.773503e-001
    outer loop
      vertex -1.109935e+001 -1.478017e-001  1.643897e+001
      vertex -4.927432e-001 -1.075440e+001  3.143897e+001
      vertex -1.109935e+001 -3.200061e+001  1.643897e+001
    endloop
  endfacet
  facet normal  8.164966e-001  0.000000e+000 -5.773503e-001
    outer loop
      vertex -1.109935e+001 -3.200061e+001  1.643897e+001
      vertex -4.927432e-001 -1.075440e+001  3.143897e+001
      vertex -4.927432e-001 -2.139400e+001  3.143897e+001
    endloop
  endfacet
  facet normal  -0.000000e+000  0.000000e+000 -1.000000e+000
    outer loop
      vertex -1.354883e+001  2.301688e+000  1.643897e+001
      vertex -1.109935e+001 -3.200061e+001  1.643897e+001
      vertex -1.354883e+001 -3.445010e+001  1.643897e+001
    endloop
  endfacet
  facet normal  0.000000e+000  0.000000e+000 -1.000000e+000
    outer loop
      vertex -1.354883e+001 -3.445010e+001  1.643897e+001
      vertex -1.109935e+001 -3.200061e+001  1.643897e+001
      vertex  2.075346e+001 -3.200061e+001  1.643897e+001
    endloop
  endfacet
  facet normal  0.000000e+000  -0.000000e+000 -1.000000e+000
    outer loop
      vertex -1.354883e+001 -3.445010e+001  1.643897e+001
      vertex  2.075346e+001 -3.200061e+001  1.643897e+001
      vertex  2.320295e+001 -3.445010e+001  1.643897e+001
    endloop
  endfacet
  facet normal  0.000000e+000  0.000000e+000 -1.000000e+000
    outer loop
      vertex -1.109935e+001 -3.200061e+001  1.643897e+001
      vertex -1.354883e+001  2.301688e+000  1.643897e+001
      vertex -1.109935e+001 -1.478017e-001  1.643897e+001
    endloop
  endfacet
  facet normal  0.000000e+000  0.000000e+000 -1.000000e+000
    outer loop
      vertex -1.109935e+001 -1.478017e-001  1.643897e+001
      vertex -1.354883e+001  2.301688e+000  1.643897e+001
      vertex  2.320295e+001  2.301688e+000  1.643897e+001
    endloop
  endfacet
  facet normal  0.000000e+000  0.000000e+000 -1.000000e+000
    outer loop
      vertex -1.109935e+001 -1.478017e-001  1.643897e+001
      vertex  2.320295e+001  2.301688e+000  1.643897e+001
      vertex  2.075346e+001 -1.478017e-001  1.643897e+001
    endloop
  endfacet
  facet normal  0.000000e+000  0.000000e+000 -1.000000e+000
    outer loop
      vertex  2.075346e+001 -1.478017e-001  1.643897e+001
      vertex  2.320295e+001  2.301688e+000  1.643897e+001
      vertex  2.320295e+001 -3.445010e+001  1.643897e+001
    endloop
  endfacet
  facet normal  0.000000e+000  0.000000e+000 -1.000000e+000
    outer loop
      vertex  2.075346e+001 -1.478017e-001  1.643897e+001
      vertex  2.320295e+001 -3.445010e+001  1.643897e+001
      vertex  2.075346e+001 -3.200061e+001  1.643897e+001
    endloop
  endfacet
  facet normal  8.660254e-001  2.886752e-001 -4.082482e-001
    outer loop
      vertex -5.172943e+000 -4.441210e+000  2.943897e+001
      vertex -5.172943e+000 -6.074203e+000  2.828427e+001
      vertex -1.436533e+001  4.751178e+000  1.643897e+001
    endloop
  endfacet
  facet normal  8.660254e-001  2.886752e-001 -4.082482e-001
    outer loop
      vertex -1.436533e+001  4.751178e+000  1.643897e+001
      vertex -5.172943e+000 -6.074203e+000  2.828427e+001
      vertex -1.354883e+001  2.301688e+000  1.643897e+001
    endloop
  endfacet
  facet normal -8.660254e-001  2.886756e-001 -4.082480e-001
    outer loop
      vertex  2.401945e+001  4.751178e+000  1.643897e+001
      vertex  2.320295e+001  2.301688e+000  1.643897e+001
      vertex  1.482706e+001 -4.441210e+000  2.943897e+001
    endloop
  endfacet
  facet normal -8.660254e-001  2.886752e-001 -4.082482e-001
    outer loop
      vertex  1.482706e+001 -4.441210e+000  2.943897e+001
      vertex  2.320295e+001  2.301688e+000  1.643897e+001
      vertex  1.482706e+001 -6.074203e+000  2.828427e+001
    endloop
  endfacet
  facet normal  -0.000000e+000  8.164966e-001  5.773503e-001
    outer loop
      vertex  2.320295e+001  2.301688e+000  1.643897e+001
      vertex -1.354883e+001  2.301688e+000  1.643897e+001
      vertex  1.482706e+001 -6.074203e+000  2.828427e+001
    endloop
  endfacet
  facet normal  0.000000e+000  8.164966e-001  5.773503e-001
    outer loop
      vertex  1.482706e+001 -6.074203e+000  2.828427e+001
      vertex -1.354883e+001  2.301688e+000  1.643897e+001
      vertex -5.172943e+000 -6.074203e+000  2.828427e+001
    endloop
  endfacet
  facet normal  0.000000e+000 -8.164966e-001 -5.773503e-001
    outer loop
      vertex  2.401945e+001  4.751178e+000  1.643897e+001
      vertex  1.482706e+001 -4.441210e+000  2.943897e+001
      vertex -1.436533e+001  4.751178e+000  1.643897e+001
    endloop
  endfacet
  facet normal  0.000000e+000 -8.164966e-001 -5.773503e-001
    outer loop
      vertex -1.436533e+001  4.751178e+000  1.643897e+001
      vertex  1.482706e+001 -4.441210e+000  2.943897e+001
      vertex -5.172943e+000 -4.441210e+000  2.943897e+001
    endloop
  endfacet
  facet normal -8.164966e-001  0.000000e+000  5.773503e-001
    outer loop
      vertex -1.354883e+001  2.301688e+000  1.643897e+001
      vertex -1.354883e+001 -3.445010e+001  1.643897e+001
      vertex -5.172943e+000 -6.074203e+000  2.828427e+001
    endloop
  endfacet
  facet normal -8.164966e-001  0.000000e+000  5.773503e-001
    outer loop
      vertex -5.172943e+000 -6.074203e+000  2.828427e+001
      vertex -1.354883e+001 -3.445010e+001  1.643897e+001
      vertex -5.172943e+000 -2.607420e+001  2.828427e+001
    endloop
  endfacet
  facet normal -2.886751e-001 -8.660254e-001 -4.082483e-001
    outer loop
      vertex -1.599832e+001  3.118185e+000  1.643897e+001
      vertex -1.354883e+001  2.301688e+000  1.643897e+001
      vertex -6.805936e+000 -6.074203e+000  2.943897e+001
    endloop
  endfacet
  facet normal -2.886752e-001 -8.660254e-001 -4.082482e-001
    outer loop
      vertex -6.805936e+000 -6.074203e+000  2.943897e+001
      vertex -1.354883e+001  2.301688e+000  1.643897e+001
      vertex -5.172943e+000 -6.074203e+000  2.828427e+001
    endloop
  endfacet
  facet normal -5.773504e-001  0.000000e+000 -8.164964e-001
    outer loop
      vertex -6.805936e+000 -6.074203e+000  2.943897e+001
      vertex -5.172943e+000 -6.074203e+000  2.828427e+001
      vertex -6.805936e+000 -2.607420e+001  2.943897e+001
    endloop
  endfacet
  facet normal -5.773504e-001  0.000000e+000 -8.164964e-001
    outer loop
      vertex -6.805936e+000 -2.607420e+001  2.943897e+001
      vertex -5.172943e+000 -6.074203e+000  2.828427e+001
      vertex -5.172943e+000 -2.607420e+001  2.828427e+001
    endloop
  endfacet
  facet normal  8.164966e-001  0.000000e+000  5.773503e-001
    outer loop
      vertex  2.320295e+001 -3.445010e+001  1.643897e+001
      vertex  2.320295e+001  2.301688e+000  1.643897e+001
      vertex  1.482706e+001 -2.607420e+001  2.828427e+001
    endloop
  endfacet
  facet normal  8.164966e-001  -0.000000e+000  5.773503e-001
    outer loop
      vertex  1.482706e+001 -2.607420e+001  2.828427e+001
      vertex  2.320295e+001  2.301688e+000  1.643897e+001
      vertex  1.482706e+001 -6.074203e+000  2.828427e+001
    endloop
  endfacet
  facet normal  5.773504e-001  0.000000e+000 -8.164966e-001
    outer loop
      vertex  1.646005e+001 -2.607420e+001  2.943897e+001
      vertex  1.482706e+001 -2.607420e+001  2.828427e+001
      vertex  1.646005e+001 -6.074203e+000  2.943897e+001
    endloop
  endfacet
  facet normal  5.773504e-001  0.000000e+000 -8.164966e-001
    outer loop
      vertex  1.646005e+001 -6.074203e+000  2.943897e+001
      vertex  1.482706e+001 -2.607420e+001  2.828427e+001
      vertex  1.482706e+001 -6.074203e+000  2.828427e+001
    endloop
  endfacet
  facet normal  2.886752e-001 -8.660253e-001 -4.082482e-001
    outer loop
      vertex  1.646005e+001 -6.074203e+000  2.943897e+001
      vertex  1.482706e+001 -6.074203e+000  2.828427e+001
      vertex  2.565244e+001  3.118185e+000  1.643897e+001
    endloop
  endfacet
  facet normal  2.886748e-001 -8.660254e-001 -4.082486e-001
    outer loop
      vertex  2.565244e+001  3.118185e+000  1.643897e+001
      vertex  1.482706e+001 -6.074203e+000  2.828427e+001
      vertex  2.320295e+001  2.301688e+000  1.643897e+001
    endloop
  endfacet
  facet normal  0.000000e+000  5.773504e-001 -8.164964e-001
    outer loop
      vertex  1.482706e+001 -4.441210e+000  2.943897e+001
      vertex  1.482706e+001 -6.074203e+000  2.828427e+001
      vertex -5.172943e+000 -4.441210e+000  2.943897e+001
    endloop
  endfacet
  facet normal  0.000000e+000  5.773504e-001 -8.164964e-001
    outer loop
      vertex -5.172943e+000 -4.441210e+000  2.943897e+001
      vertex  1.482706e+001 -6.074203e+000  2.828427e+001
      vertex -5.172943e+000 -6.074203e+000  2.828427e+001
    endloop
  endfacet
  facet normal -2.886752e-001  8.660255e-001 -4.082482e-001
    outer loop
      vertex -6.805936e+000 -2.607420e+001  2.943897e+001
      vertex -5.172943e+000 -2.607420e+001  2.828427e+001
      vertex -1.599832e+001 -3.526659e+001  1.643897e+001
    endloop
  endfacet
  facet normal -2.886742e-001  8.660254e-001 -4.082490e-001
    outer loop
      vertex -1.599832e+001 -3.526659e+001  1.643897e+001
      vertex -5.172943e+000 -2.607420e+001  2.828427e+001
      vertex -1.354883e+001 -3.445010e+001  1.643897e+001
    endloop
  endfacet
  facet normal  8.164966e-001  0.000000e+000 -5.773503e-001
    outer loop
      vertex -1.599832e+001  3.118185e+000  1.643897e+001
      vertex -6.805936e+000 -6.074203e+000  2.943897e+001
      vertex -1.599832e+001 -3.526659e+001  1.643897e+001
    endloop
  endfacet
  facet normal  8.164966e-001  0.000000e+000 -5.773503e-001
    outer loop
      vertex -1.599832e+001 -3.526659e+001  1.643897e+001
      vertex -6.805936e+000 -6.074203e+000  2.943897e+001
      vertex -6.805936e+000 -2.607420e+001  2.943897e+001
    endloop
  endfacet
  facet normal  0.000000e+000 -8.164966e-001  5.773504e-001
    outer loop
      vertex -1.354883e+001 -3.445010e+001  1.643897e+001
      vertex  2.320295e+001 -3.445010e+001  1.643897e+001
      vertex -5.172943e+000 -2.607420e+001  2.828427e+001
    endloop
  endfacet
  facet normal  0.000000e+000 -8.164966e-001  5.773504e-001
    outer loop
      vertex -5.172943e+000 -2.607420e+001  2.828427e+001
      vertex  2.320295e+001 -3.445010e+001  1.643897e+001
      vertex  1.482706e+001 -2.607420e+001  2.828427e+001
    endloop
  endfacet
  facet normal  8.660254e-001 -2.886752e-001 -4.082482e-001
    outer loop
      vertex -1.436533e+001 -3.689959e+001  1.643897e+001
      vertex -1.354883e+001 -3.445010e+001  1.643897e+001
      vertex -5.172943e+000 -2.770720e+001  2.943897e+001
    endloop
  endfacet
  facet normal  8.660254e-001 -2.886752e-001 -4.082483e-001
    outer loop
      vertex -5.172943e+000 -2.770720e+001  2.943897e+001
      vertex -1.354883e+001 -3.445010e+001  1.643897e+001
      vertex -5.172943e+000 -2.607420e+001  2.828427e+001
    endloop
  endfacet
  facet normal  0.000000e+000 -5.773504e-001 -8.164966e-001
    outer loop
      vertex -5.172943e+000 -2.770720e+001  2.943897e+001
      vertex -5.172943e+000 -2.607420e+001  2.828427e+001
      vertex  1.482706e+001 -2.770720e+001  2.943897e+001
    endloop
  endfacet
  facet normal  0.000000e+000 -5.773504e-001 -8.164966e-001
    outer loop
      vertex  1.482706e+001 -2.770720e+001  2.943897e+001
      vertex -5.172943e+000 -2.607420e+001  2.828427e+001
      vertex  1.482706e+001 -2.607420e+001  2.828427e+001
    endloop
  endfacet
  facet normal -8.660253e-001 -2.886752e-001 -4.082482e-001
    outer loop
      vertex  1.482706e+001 -2.770720e+001  2.943897e+001
      vertex  1.482706e+001 -2.607420e+001  2.828427e+001
      vertex  2.401945e+001 -3.689959e+001  1.643897e+001
    endloop
  endfacet
  facet normal -8.660254e-001 -2.886756e-001 -4.082479e-001
    outer loop
      vertex  2.401945e+001 -3.689959e+001  1.643897e+001
      vertex  1.482706e+001 -2.607420e+001  2.828427e+001
      vertex  2.320295e+001 -3.445010e+001  1.643897e+001
    endloop
  endfacet
  facet normal  0.000000e+000  8.164966e-001 -5.773503e-001
    outer loop
      vertex -1.436533e+001 -3.689959e+001  1.643897e+001
      vertex -5.172943e+000 -2.770720e+001  2.943897e+001
      vertex  2.401945e+001 -3.689959e+001  1.643897e+001
    endloop
  endfacet
  facet normal  0.000000e+000  8.164966e-001 -5.773503e-001
    outer loop
      vertex  2.401945e+001 -3.689959e+001  1.643897e+001
      vertex -5.172943e+000 -2.770720e+001  2.943897e+001
      vertex  1.482706e+001 -2.770720e+001  2.943897e+001
    endloop
  endfacet
  facet normal  2.886740e-001  8.660254e-001 -4.082490e-001
    outer loop
      vertex  2.565244e+001 -3.526659e+001  1.643897e+001
      vertex  2.320295e+001 -3.445010e+001  1.643897e+001
      vertex  1.646005e+001 -2.607420e+001  2.943897e+001
    endloop
  endfacet
  facet normal  2.886752e-001  8.660254e-001 -4.082483e-001
    outer loop
      vertex  1.646005e+001 -2.607420e+001  2.943897e+001
      vertex  2.320295e+001 -3.445010e+001  1.643897e+001
      vertex  1.482706e+001 -2.607420e+001  2.828427e+001
    endloop
  endfacet
  facet normal -8.164966e-001  0.000000e+000 -5.773503e-001
    outer loop
      vertex  2.565244e+001 -3.526659e+001  1.643897e+001
      vertex  1.646005e+001 -2.607420e+001  2.943897e+001
      vertex  2.565244e+001  3.118185e+000  1.643897e+001
    endloop
  endfacet
  facet normal -8.164966e-001  0.000000e+000 -5.773503e-001
    outer loop
      vertex  2.565244e+001  3.118185e+000  1.643897e+001
      vertex  1.646005e+001 -2.607420e+001  2.943897e+001
      vertex  1.646005e+001 -6.074203e+000  2.943897e+001
    endloop
  endfacet
endsolid CATIA STL
