solid CATIA STL
  facet normal -5.532837e-007  8.164965e-001  5.773504e-001
    outer loop
      vertex -9.805936e+000  7.952188e+000  1.500000e+001
      vertex -1.221320e+001  1.182728e+001  9.519787e+000
      vertex -1.250609e+001  1.141903e+001  1.009714e+001
    endloop
  endfacet
  facet normal  3.221546e-017  8.164966e-001  5.773503e-001
    outer loop
      vertex -9.805936e+000  1.855879e+001 -8.881784e-016
      vertex -2.572345e+001  1.855879e+001  0.000000e+000
      vertex -1.421320e+001  1.182728e+001  9.519787e+000
    endloop
  endfacet
  facet normal -1.734884e-006  8.164970e-001  5.773498e-001
    outer loop
      vertex -9.805936e+000  1.855879e+001 -8.881784e-016
      vertex -1.421320e+001  1.182728e+001  9.519787e+000
      vertex -1.392030e+001  1.223553e+001  8.942437e+000
    endloop
  endfacet
  facet normal  2.999246e-007  8.164965e-001  5.773504e-001
    outer loop
      vertex -9.805936e+000  1.855879e+001 -8.881784e-016
      vertex -1.392030e+001  1.223553e+001  8.942437e+000
      vertex -1.321320e+001  1.240463e+001  8.703291e+000
    endloop
  endfacet
  facet normal -2.297886e-007  8.164966e-001  5.773503e-001
    outer loop
      vertex -9.805936e+000  1.855879e+001 -8.881784e-016
      vertex -1.321320e+001  1.240463e+001  8.703291e+000
      vertex -1.250609e+001  1.223553e+001  8.942437e+000
    endloop
  endfacet
  facet normal  1.012133e-007  8.164965e-001  5.773503e-001
    outer loop
      vertex -9.805936e+000  1.855879e+001 -8.881784e-016
      vertex -1.250609e+001  1.223553e+001  8.942437e+000
      vertex -1.221320e+001  1.182728e+001  9.519787e+000
    endloop
  endfacet
  facet normal -7.477977e-008  8.164966e-001  5.773503e-001
    outer loop
      vertex -9.805936e+000  1.855879e+001 -8.881784e-016
      vertex -1.221320e+001  1.182728e+001  9.519787e+000
      vertex -9.805936e+000  7.952188e+000  1.500000e+001
    endloop
  endfacet
  facet normal  0.000000e+000  8.164966e-001  5.773502e-001
    outer loop
      vertex -1.511685e+001  7.952188e+000  1.500000e+001
      vertex -9.805936e+000  7.952188e+000  1.500000e+001
      vertex -1.250609e+001  1.141903e+001  1.009714e+001
    endloop
  endfacet
  facet normal  2.641422e-007  8.164966e-001  5.773503e-001
    outer loop
      vertex -1.511685e+001  7.952188e+000  1.500000e+001
      vertex -1.250609e+001  1.141903e+001  1.009714e+001
      vertex -1.321320e+001  1.124993e+001  1.033628e+001
    endloop
  endfacet
  facet normal -2.000595e-007  8.164966e-001  5.773502e-001
    outer loop
      vertex -1.511685e+001  7.952188e+000  1.500000e+001
      vertex -1.321320e+001  1.124993e+001  1.033628e+001
      vertex -1.392030e+001  1.141903e+001  1.009714e+001
    endloop
  endfacet
  facet normal  7.791162e-007  8.164965e-001  5.773503e-001
    outer loop
      vertex -1.511685e+001  7.952188e+000  1.500000e+001
      vertex -1.392030e+001  1.141903e+001  1.009714e+001
      vertex -1.421320e+001  1.182728e+001  9.519787e+000
    endloop
  endfacet
  facet normal  3.766979e-008  8.164966e-001  5.773503e-001
    outer loop
      vertex -1.511685e+001  7.952188e+000  1.500000e+001
      vertex -1.421320e+001  1.182728e+001  9.519787e+000
      vertex -2.572345e+001  1.855879e+001  0.000000e+000
    endloop
  endfacet
  facet normal -8.164967e-001 -2.102787e-007  5.773502e-001
    outer loop
      vertex -1.919934e+001  3.869705e+000  1.500000e+001
      vertex -2.980594e+001  1.447631e+001  0.000000e+000
      vertex -2.346498e+001  4.070961e+000  8.967459e+000
    endloop
  endfacet
  facet normal -8.164966e-001  4.301971e-006  5.773502e-001
    outer loop
      vertex -1.919934e+001  3.869705e+000  1.500000e+001
      vertex -2.346498e+001  4.070961e+000  8.967459e+000
      vertex -2.305674e+001  3.778068e+000  9.544809e+000
    endloop
  endfacet
  facet normal -8.164966e-001 -1.926645e-006  5.773504e-001
    outer loop
      vertex -1.919934e+001  3.869705e+000  1.500000e+001
      vertex -2.305674e+001  3.778068e+000  9.544809e+000
      vertex -2.288763e+001  3.070961e+000  9.783956e+000
    endloop
  endfacet
  facet normal -8.164968e-001  2.137106e-006  5.773499e-001
    outer loop
      vertex -1.919934e+001  3.869705e+000  1.500000e+001
      vertex -2.288763e+001  3.070961e+000  9.783956e+000
      vertex -2.305674e+001  2.363854e+000  9.544809e+000
    endloop
  endfacet
  facet normal -8.164953e-001 -9.749293e-006  5.773522e-001
    outer loop
      vertex -1.919934e+001  3.869705e+000  1.500000e+001
      vertex -2.305674e+001  2.363854e+000  9.544809e+000
      vertex -2.346498e+001  2.070961e+000  8.967459e+000
    endloop
  endfacet
  facet normal -8.164967e-001  0.000000e+000  5.773502e-001
    outer loop
      vertex -1.919934e+001  3.869705e+000  1.500000e+001
      vertex -2.346498e+001  2.070961e+000  8.967459e+000
      vertex -1.919934e+001 -1.441210e+000  1.500000e+001
    endloop
  endfacet
  facet normal -8.164965e-001 -6.443092e-017  5.773503e-001
    outer loop
      vertex -2.980594e+001  1.447631e+001  0.000000e+000
      vertex -2.980594e+001 -1.441210e+000 -1.776357e-015
      vertex -2.387323e+001  2.363854e+000  8.390108e+000
    endloop
  endfacet
  facet normal -8.164962e-001  5.123287e-007  5.773508e-001
    outer loop
      vertex -2.980594e+001  1.447631e+001  0.000000e+000
      vertex -2.387323e+001  2.363854e+000  8.390108e+000
      vertex -2.404234e+001  3.070961e+000  8.150962e+000
    endloop
  endfacet
  facet normal -8.164967e-001 -1.831860e-007  5.773502e-001
    outer loop
      vertex -2.980594e+001  1.447631e+001  0.000000e+000
      vertex -2.404234e+001  3.070961e+000  8.150962e+000
      vertex -2.387323e+001  3.778068e+000  8.390108e+000
    endloop
  endfacet
  facet normal -8.164964e-001  2.527646e-007  5.773506e-001
    outer loop
      vertex -2.980594e+001  1.447631e+001  0.000000e+000
      vertex -2.387323e+001  3.778068e+000  8.390108e+000
      vertex -2.346498e+001  4.070961e+000  8.967459e+000
    endloop
  endfacet
  facet normal -8.164966e-001  1.461904e-007  5.773503e-001
    outer loop
      vertex -2.980594e+001 -1.441210e+000 -1.776357e-015
      vertex -1.919934e+001 -1.441210e+000  1.500000e+001
      vertex -2.387323e+001  2.363854e+000  8.390108e+000
    endloop
  endfacet
  facet normal -8.164942e-001  8.791898e-006  5.773536e-001
    outer loop
      vertex -2.387323e+001  2.363854e+000  8.390108e+000
      vertex -1.919934e+001 -1.441210e+000  1.500000e+001
      vertex -2.346498e+001  2.070961e+000  8.967459e+000
    endloop
  endfacet
  facet normal  0.000000e+000  0.000000e+000  1.000000e+000
    outer loop
      vertex -1.843720e+001  6.405060e+000  1.500000e+001
      vertex -1.900511e+001  5.247503e+000  1.500000e+001
      vertex -1.538284e+001  5.768684e+000  1.500000e+001
    endloop
  endfacet
  facet normal  0.000000e+000  0.000000e+000  1.000000e+000
    outer loop
      vertex -1.538284e+001  5.768684e+000  1.500000e+001
      vertex -1.900511e+001  5.247503e+000  1.500000e+001
      vertex -1.701583e+001  4.135691e+000  1.500000e+001
    endloop
  endfacet
  facet normal  -0.000000e+000  0.000000e+000  1.000000e+000
    outer loop
      vertex -1.538284e+001  5.768684e+000  1.500000e+001
      vertex -1.701583e+001  4.135691e+000  1.500000e+001
      vertex -1.456634e+001  3.319195e+000  1.500000e+001
    endloop
  endfacet
  facet normal  0.000000e+000  0.000000e+000  1.000000e+000
    outer loop
      vertex -9.805936e+000  5.768684e+000  1.500000e+001
      vertex -9.805936e+000  7.952188e+000  1.500000e+001
      vertex -1.538284e+001  5.768684e+000  1.500000e+001
    endloop
  endfacet
  facet normal  0.000000e+000  -0.000000e+000  1.000000e+000
    outer loop
      vertex -1.538284e+001  5.768684e+000  1.500000e+001
      vertex -9.805936e+000  7.952188e+000  1.500000e+001
      vertex -1.843720e+001  6.405060e+000  1.500000e+001
    endloop
  endfacet
  facet normal  -0.000000e+000  0.000000e+000  1.000000e+000
    outer loop
      vertex -9.805936e+000  7.952188e+000  1.500000e+001
      vertex -1.511685e+001  7.952188e+000  1.500000e+001
      vertex -1.843720e+001  6.405060e+000  1.500000e+001
    endloop
  endfacet
  facet normal  0.000000e+000  0.000000e+000  1.000000e+000
    outer loop
      vertex -1.843720e+001  6.405060e+000  1.500000e+001
      vertex -1.511685e+001  7.952188e+000  1.500000e+001
      vertex -1.699701e+001  7.570072e+000  1.500000e+001
    endloop
  endfacet
  facet normal  0.000000e+000  0.000000e+000  9.999999e-001
    outer loop
      vertex -1.900511e+001  5.247503e+000  1.500000e+001
      vertex -1.919934e+001  3.869705e+000  1.500000e+001
      vertex -1.701583e+001  4.135691e+000  1.500000e+001
    endloop
  endfacet
  facet normal  0.000000e+000  0.000000e+000  1.000000e+000
    outer loop
      vertex -1.701583e+001  4.135691e+000  1.500000e+001
      vertex -1.919934e+001  3.869705e+000  1.500000e+001
      vertex -1.919934e+001 -1.441210e+000  1.500000e+001
    endloop
  endfacet
  facet normal  0.000000e+000  0.000000e+000  1.000000e+000
    outer loop
      vertex -1.701583e+001  4.135691e+000  1.500000e+001
      vertex -1.919934e+001 -1.441210e+000  1.500000e+001
      vertex -1.701583e+001 -1.441210e+000  1.500000e+001
    endloop
  endfacet
  facet normal  1.363304e-015 -1.115976e-016  1.000000e+000
    outer loop
      vertex -2.980594e+001  1.447631e+001  0.000000e+000
      vertex -3.080594e+001  2.260062e+000  0.000000e+000
      vertex -2.980594e+001 -1.441210e+000 -1.776357e-015
    endloop
  endfacet
  facet normal  7.012544e-016 -2.904684e-016  1.000000e+000
    outer loop
      vertex -3.080594e+001  2.260062e+000  0.000000e+000
      vertex -3.124528e+001  1.199402e+000  0.000000e+000
      vertex -2.980594e+001 -1.441210e+000 -1.776357e-015
    endloop
  endfacet
  facet normal  0.000000e+000  -0.000000e+000  1.000000e+000
    outer loop
      vertex -3.230593e+001  2.288892e+001  0.000000e+000
      vertex -3.087121e+001  2.128049e+001  0.000000e+000
      vertex -2.980594e+001  2.355879e+001  0.000000e+000
    endloop
  endfacet
  facet normal  0.000000e+000  0.000000e+000  1.000000e+000
    outer loop
      vertex -2.937121e+001  1.978049e+001  0.000000e+000
      vertex -2.981055e+001  1.871983e+001  0.000000e+000
      vertex -1.350756e+001  1.955879e+001  0.000000e+000
    endloop
  endfacet
  facet normal  0.000000e+000  0.000000e+000  1.000000e+000
    outer loop
      vertex -2.937121e+001  1.978049e+001  0.000000e+000
      vertex -1.350756e+001  1.955879e+001  0.000000e+000
      vertex -1.456822e+001  1.999813e+001  0.000000e+000
    endloop
  endfacet
  facet normal  0.000000e+000  0.000000e+000  1.000000e+000
    outer loop
      vertex -2.937121e+001  1.978049e+001  0.000000e+000
      vertex -1.456822e+001  1.999813e+001  0.000000e+000
      vertex -1.500756e+001  2.105879e+001  0.000000e+000
    endloop
  endfacet
  facet normal  0.000000e+000  0.000000e+000  1.000000e+000
    outer loop
      vertex -2.937121e+001  1.978049e+001  0.000000e+000
      vertex -1.500756e+001  2.105879e+001  0.000000e+000
      vertex -2.981055e+001  2.084115e+001  0.000000e+000
    endloop
  endfacet
  facet normal  2.394958e-016 -1.776357e-016  1.000000e+000
    outer loop
      vertex -9.805936e+000  1.855879e+001 -8.881784e-016
      vertex -9.805936e+000  2.355879e+001  0.000000e+000
      vertex -1.244690e+001  1.999813e+001  0.000000e+000
    endloop
  endfacet
  facet normal  1.452257e-016 -3.506069e-016  1.000000e+000
    outer loop
      vertex -9.805936e+000  1.855879e+001 -8.881784e-016
      vertex -1.244690e+001  1.999813e+001  0.000000e+000
      vertex -1.350756e+001  1.955879e+001  0.000000e+000
    endloop
  endfacet
  facet normal  3.839265e-017 -7.460632e-016  1.000000e+000
    outer loop
      vertex -9.805936e+000  1.855879e+001 -8.881784e-016
      vertex -1.350756e+001  1.955879e+001  0.000000e+000
      vertex -2.981055e+001  1.871983e+001  0.000000e+000
    endloop
  endfacet
  facet normal  5.579880e-017  1.416111e-015  1.000000e+000
    outer loop
      vertex -9.805936e+000  1.855879e+001 -8.881784e-016
      vertex -2.981055e+001  1.871983e+001  0.000000e+000
      vertex -2.572345e+001  1.855879e+001  0.000000e+000
    endloop
  endfacet
  facet normal  3.552715e-016 -4.790559e-016  9.999999e-001
    outer loop
      vertex -3.480593e+001 -1.441210e+000  0.000000e+000
      vertex -2.980594e+001 -1.441210e+000 -1.776357e-015
      vertex -3.124528e+001  1.199402e+000  0.000000e+000
    endloop
  endfacet
  facet normal  0.000000e+000  0.000000e+000  1.000000e+000
    outer loop
      vertex -3.480593e+001 -1.441210e+000  0.000000e+000
      vertex -3.124528e+001  1.199402e+000  0.000000e+000
      vertex -3.230593e+001  7.600617e-001  0.000000e+000
    endloop
  endfacet
  facet normal  0.000000e+000  0.000000e+000  9.999999e-001
    outer loop
      vertex -3.480593e+001 -1.441210e+000  0.000000e+000
      vertex -3.230593e+001  7.600617e-001  0.000000e+000
      vertex -3.336660e+001  1.199402e+000  0.000000e+000
    endloop
  endfacet
  facet normal  0.000000e+000  0.000000e+000  1.000000e+000
    outer loop
      vertex -3.480593e+001 -1.441210e+000  0.000000e+000
      vertex -3.336660e+001  1.199402e+000  0.000000e+000
      vertex -3.380593e+001  2.260062e+000  0.000000e+000
    endloop
  endfacet
  facet normal  0.000000e+000  0.000000e+000  1.000000e+000
    outer loop
      vertex -3.480593e+001 -1.441210e+000  0.000000e+000
      vertex -3.380593e+001  2.260062e+000  0.000000e+000
      vertex -3.480593e+001  1.855879e+001  0.000000e+000
    endloop
  endfacet
  facet normal  0.000000e+000  -0.000000e+000  1.000000e+000
    outer loop
      vertex -3.480593e+001  1.855879e+001  0.000000e+000
      vertex -3.380593e+001  2.260062e+000  0.000000e+000
      vertex -3.336660e+001  3.320722e+000  0.000000e+000
    endloop
  endfacet
  facet normal  0.000000e+000  -0.000000e+000  1.000000e+000
    outer loop
      vertex -3.480593e+001  1.855879e+001  0.000000e+000
      vertex -3.336660e+001  3.320722e+000  0.000000e+000
      vertex -3.230593e+001  3.760062e+000  0.000000e+000
    endloop
  endfacet
  facet normal  0.000000e+000  -0.000000e+000  9.999999e-001
    outer loop
      vertex -3.480593e+001  1.855879e+001  0.000000e+000
      vertex -3.230593e+001  3.760062e+000  0.000000e+000
      vertex -3.087121e+001  1.828049e+001  0.000000e+000
    endloop
  endfacet
  facet normal  0.000000e+000  0.000000e+000  1.000000e+000
    outer loop
      vertex -3.480593e+001  1.855879e+001  0.000000e+000
      vertex -3.087121e+001  1.828049e+001  0.000000e+000
      vertex -3.193187e+001  1.871983e+001  0.000000e+000
    endloop
  endfacet
  facet normal  0.000000e+000  0.000000e+000  1.000000e+000
    outer loop
      vertex -3.413606e+001  2.105879e+001  0.000000e+000
      vertex -3.480593e+001  1.855879e+001  0.000000e+000
      vertex -3.193187e+001  1.871983e+001  0.000000e+000
    endloop
  endfacet
  facet normal  0.000000e+000  0.000000e+000  1.000000e+000
    outer loop
      vertex -3.413606e+001  2.105879e+001  0.000000e+000
      vertex -3.193187e+001  1.871983e+001  0.000000e+000
      vertex -3.237121e+001  1.978049e+001  0.000000e+000
    endloop
  endfacet
  facet normal  0.000000e+000  -0.000000e+000  1.000000e+000
    outer loop
      vertex -3.413606e+001  2.105879e+001  0.000000e+000
      vertex -3.237121e+001  1.978049e+001  0.000000e+000
      vertex -3.193187e+001  2.084115e+001  0.000000e+000
    endloop
  endfacet
  facet normal  0.000000e+000  -0.000000e+000  1.000000e+000
    outer loop
      vertex -3.413606e+001  2.105879e+001  0.000000e+000
      vertex -3.193187e+001  2.084115e+001  0.000000e+000
      vertex -3.087121e+001  2.128049e+001  0.000000e+000
    endloop
  endfacet
  facet normal  0.000000e+000  0.000000e+000  1.000000e+000
    outer loop
      vertex -3.413606e+001  2.105879e+001  0.000000e+000
      vertex -3.087121e+001  2.128049e+001  0.000000e+000
      vertex -3.230593e+001  2.288892e+001  0.000000e+000
    endloop
  endfacet
  facet normal  -0.000000e+000  0.000000e+000  1.000000e+000
    outer loop
      vertex -3.087121e+001  1.828049e+001  0.000000e+000
      vertex -3.230593e+001  3.760062e+000  0.000000e+000
      vertex -3.124528e+001  3.320722e+000  0.000000e+000
    endloop
  endfacet
  facet normal  -0.000000e+000  0.000000e+000  1.000000e+000
    outer loop
      vertex -3.087121e+001  1.828049e+001  0.000000e+000
      vertex -3.124528e+001  3.320722e+000  0.000000e+000
      vertex -3.080594e+001  2.260062e+000  0.000000e+000
    endloop
  endfacet
  facet normal  0.000000e+000  -0.000000e+000  1.000000e+000
    outer loop
      vertex -3.087121e+001  1.828049e+001  0.000000e+000
      vertex -3.080594e+001  2.260062e+000  0.000000e+000
      vertex -2.980594e+001  1.447631e+001  0.000000e+000
    endloop
  endfacet
  facet normal  0.000000e+000  -0.000000e+000  9.999999e-001
    outer loop
      vertex -3.087121e+001  1.828049e+001  0.000000e+000
      vertex -2.980594e+001  1.447631e+001  0.000000e+000
      vertex -2.961171e+001  1.585410e+001  0.000000e+000
    endloop
  endfacet
  facet normal  0.000000e+000  -0.000000e+000  1.000000e+000
    outer loop
      vertex -3.087121e+001  1.828049e+001  0.000000e+000
      vertex -2.961171e+001  1.585410e+001  0.000000e+000
      vertex -2.904380e+001  1.701166e+001  0.000000e+000
    endloop
  endfacet
  facet normal  0.000000e+000  -0.000000e+000  1.000000e+000
    outer loop
      vertex -3.087121e+001  1.828049e+001  0.000000e+000
      vertex -2.904380e+001  1.701166e+001  0.000000e+000
      vertex -2.760361e+001  1.817667e+001  0.000000e+000
    endloop
  endfacet
  facet normal  0.000000e+000  -0.000000e+000  9.999999e-001
    outer loop
      vertex -3.087121e+001  1.828049e+001  0.000000e+000
      vertex -2.760361e+001  1.817667e+001  0.000000e+000
      vertex -2.572345e+001  1.855879e+001  0.000000e+000
    endloop
  endfacet
  facet normal  0.000000e+000  0.000000e+000  1.000000e+000
    outer loop
      vertex -3.087121e+001  1.828049e+001  0.000000e+000
      vertex -2.572345e+001  1.855879e+001  0.000000e+000
      vertex -2.981055e+001  1.871983e+001  0.000000e+000
    endloop
  endfacet
  facet normal  -0.000000e+000  0.000000e+000  1.000000e+000
    outer loop
      vertex -9.805936e+000  2.355879e+001  0.000000e+000
      vertex -2.980594e+001  2.355879e+001  0.000000e+000
      vertex -1.350756e+001  2.255879e+001  0.000000e+000
    endloop
  endfacet
  facet normal  -0.000000e+000  0.000000e+000  1.000000e+000
    outer loop
      vertex -9.805936e+000  2.355879e+001  0.000000e+000
      vertex -1.350756e+001  2.255879e+001  0.000000e+000
      vertex -1.244690e+001  2.211945e+001  0.000000e+000
    endloop
  endfacet
  facet normal  -0.000000e+000  0.000000e+000  9.999999e-001
    outer loop
      vertex -9.805936e+000  2.355879e+001  0.000000e+000
      vertex -1.244690e+001  2.211945e+001  0.000000e+000
      vertex -1.200756e+001  2.105879e+001  0.000000e+000
    endloop
  endfacet
  facet normal  -0.000000e+000  0.000000e+000  1.000000e+000
    outer loop
      vertex -9.805936e+000  2.355879e+001  0.000000e+000
      vertex -1.200756e+001  2.105879e+001  0.000000e+000
      vertex -1.244690e+001  1.999813e+001  0.000000e+000
    endloop
  endfacet
  facet normal  0.000000e+000  0.000000e+000  1.000000e+000
    outer loop
      vertex -2.980594e+001  2.355879e+001  0.000000e+000
      vertex -3.087121e+001  2.128049e+001  0.000000e+000
      vertex -1.350756e+001  2.255879e+001  0.000000e+000
    endloop
  endfacet
  facet normal  0.000000e+000  0.000000e+000  9.999999e-001
    outer loop
      vertex -1.350756e+001  2.255879e+001  0.000000e+000
      vertex -3.087121e+001  2.128049e+001  0.000000e+000
      vertex -1.456822e+001  2.211945e+001  0.000000e+000
    endloop
  endfacet
  facet normal  0.000000e+000  -0.000000e+000  1.000000e+000
    outer loop
      vertex -3.087121e+001  2.128049e+001  0.000000e+000
      vertex -2.981055e+001  2.084115e+001  0.000000e+000
      vertex -1.456822e+001  2.211945e+001  0.000000e+000
    endloop
  endfacet
  facet normal  0.000000e+000  0.000000e+000  1.000000e+000
    outer loop
      vertex -1.456822e+001  2.211945e+001  0.000000e+000
      vertex -2.981055e+001  2.084115e+001  0.000000e+000
      vertex -1.500756e+001  2.105879e+001  0.000000e+000
    endloop
  endfacet
  facet normal -7.736436e-001  1.090589e-001  6.241649e-001
    outer loop
      vertex -2.980594e+001  1.447631e+001  0.000000e+000
      vertex -1.919934e+001  3.869705e+000  1.500000e+001
      vertex -2.961171e+001  1.585410e+001  0.000000e+000
    endloop
  endfacet
  facet normal -7.736436e-001  1.090589e-001  6.241649e-001
    outer loop
      vertex -2.961171e+001  1.585410e+001  0.000000e+000
      vertex -1.919934e+001  3.869705e+000  1.500000e+001
      vertex -1.900511e+001  5.247503e+000  1.500000e+001
    endloop
  endfacet
  facet normal -6.520980e-001  3.199261e-001  6.873248e-001
    outer loop
      vertex -2.961171e+001  1.585410e+001  0.000000e+000
      vertex -1.900511e+001  5.247503e+000  1.500000e+001
      vertex -2.904380e+001  1.701166e+001  0.000000e+000
    endloop
  endfacet
  facet normal -6.520980e-001  3.199261e-001  6.873248e-001
    outer loop
      vertex -2.904380e+001  1.701166e+001  0.000000e+000
      vertex -1.900511e+001  5.247503e+000  1.500000e+001
      vertex -1.843720e+001  6.405060e+000  1.500000e+001
    endloop
  endfacet
  facet normal -4.459439e-001  5.512784e-001  7.051426e-001
    outer loop
      vertex -2.904380e+001  1.701166e+001  0.000000e+000
      vertex -1.843720e+001  6.405060e+000  1.500000e+001
      vertex -2.760361e+001  1.817667e+001  0.000000e+000
    endloop
  endfacet
  facet normal -4.459439e-001  5.512784e-001  7.051426e-001
    outer loop
      vertex -2.760361e+001  1.817667e+001  0.000000e+000
      vertex -1.843720e+001  6.405060e+000  1.500000e+001
      vertex -1.699701e+001  7.570072e+000  1.500000e+001
    endloop
  endfacet
  facet normal -1.529699e-001  7.526685e-001  6.403831e-001
    outer loop
      vertex -2.760361e+001  1.817667e+001  0.000000e+000
      vertex -1.699701e+001  7.570072e+000  1.500000e+001
      vertex -2.572345e+001  1.855879e+001  0.000000e+000
    endloop
  endfacet
  facet normal -1.529699e-001  7.526685e-001  6.403831e-001
    outer loop
      vertex -2.572345e+001  1.855879e+001  0.000000e+000
      vertex -1.699701e+001  7.570072e+000  1.500000e+001
      vertex -1.511685e+001  7.952188e+000  1.500000e+001
    endloop
  endfacet
  facet normal  0.000000e+000 -1.000000e+000  -0.000000e+000
    outer loop
      vertex -9.805936e+000  1.192580e+001 -2.000000e+000
      vertex -9.805936e+000  1.192580e+001  0.000000e+000
      vertex -2.317294e+001  1.192580e+001 -2.000000e+000
    endloop
  endfacet
  facet normal  0.000000e+000 -1.000000e+000  0.000000e+000
    outer loop
      vertex -2.317294e+001  1.192580e+001 -2.000000e+000
      vertex -9.805936e+000  1.192580e+001  0.000000e+000
      vertex -2.317294e+001  1.192580e+001 -5.329071e-015
    endloop
  endfacet
  facet normal  9.999999e-001  0.000000e+000  0.000000e+000
    outer loop
      vertex -2.317294e+001  1.192580e+001 -2.000000e+000
      vertex -2.317294e+001  1.192580e+001 -5.329071e-015
      vertex -2.317294e+001 -1.441210e+000 -2.000000e+000
    endloop
  endfacet
  facet normal  9.999999e-001  0.000000e+000  0.000000e+000
    outer loop
      vertex -2.317294e+001 -1.441210e+000 -2.000000e+000
      vertex -2.317294e+001  1.192580e+001 -5.329071e-015
      vertex -2.317294e+001 -1.441210e+000 -8.881784e-015
    endloop
  endfacet
  facet normal  0.000000e+000  1.000000e+000  0.000000e+000
    outer loop
      vertex -2.980594e+001  2.355879e+001  0.000000e+000
      vertex -9.805936e+000  2.355879e+001  0.000000e+000
      vertex -2.980594e+001  2.355879e+001 -2.000000e+000
    endloop
  endfacet
  facet normal  0.000000e+000  1.000000e+000  0.000000e+000
    outer loop
      vertex -2.980594e+001  2.355879e+001 -2.000000e+000
      vertex -9.805936e+000  2.355879e+001  0.000000e+000
      vertex -9.805936e+000  2.355879e+001 -2.000000e+000
    endloop
  endfacet
  facet normal -1.000000e+000  -0.000000e+000  0.000000e+000
    outer loop
      vertex -3.480593e+001 -1.441210e+000  0.000000e+000
      vertex -3.480593e+001  1.855879e+001  0.000000e+000
      vertex -3.480593e+001 -1.441210e+000 -2.000000e+000
    endloop
  endfacet
  facet normal -1.000000e+000  0.000000e+000  0.000000e+000
    outer loop
      vertex -3.480593e+001 -1.441210e+000 -2.000000e+000
      vertex -3.480593e+001  1.855879e+001  0.000000e+000
      vertex -3.480593e+001  1.855879e+001 -2.000000e+000
    endloop
  endfacet
  facet normal  0.000000e+000 -1.000000e+000  0.000000e+000
    outer loop
      vertex -3.480593e+001 -1.441210e+000  0.000000e+000
      vertex -3.480593e+001 -1.441210e+000 -2.000000e+000
      vertex -2.980594e+001 -1.441210e+000 -1.776357e-015
    endloop
  endfacet
  facet normal  0.000000e+000 -1.000000e+000  -0.000000e+000
    outer loop
      vertex -2.980594e+001 -1.441210e+000 -1.776357e-015
      vertex -3.480593e+001 -1.441210e+000 -2.000000e+000
      vertex -2.317294e+001 -1.441210e+000 -2.000000e+000
    endloop
  endfacet
  facet normal  0.000000e+000 -1.000000e+000  0.000000e+000
    outer loop
      vertex -2.980594e+001 -1.441210e+000 -1.776357e-015
      vertex -2.317294e+001 -1.441210e+000 -2.000000e+000
      vertex -2.680594e+001 -1.441210e+000  1.154701e+000
    endloop
  endfacet
  facet normal  0.000000e+000 -1.000000e+000  0.000000e+000
    outer loop
      vertex -2.680594e+001 -1.441210e+000  1.154701e+000
      vertex -2.317294e+001 -1.441210e+000 -2.000000e+000
      vertex -2.517294e+001 -1.441210e+000  4.865221e-014
    endloop
  endfacet
  facet normal  0.000000e+000 -1.000000e+000  -0.000000e+000
    outer loop
      vertex -1.256634e+001 -1.441210e+000  1.500000e+001
      vertex -1.456634e+001 -1.441210e+000  1.500000e+001
      vertex -2.317294e+001 -1.441210e+000 -8.881784e-015
    endloop
  endfacet
  facet normal  0.000000e+000 -1.000000e+000  0.000000e+000
    outer loop
      vertex -2.317294e+001 -1.441210e+000 -8.881784e-015
      vertex -1.456634e+001 -1.441210e+000  1.500000e+001
      vertex -2.517294e+001 -1.441210e+000  4.865221e-014
    endloop
  endfacet
  facet normal  0.000000e+000 -1.000000e+000  0.000000e+000
    outer loop
      vertex -2.317294e+001 -1.441210e+000 -8.881784e-015
      vertex -2.517294e+001 -1.441210e+000  4.865221e-014
      vertex -2.317294e+001 -1.441210e+000 -2.000000e+000
    endloop
  endfacet
  facet normal  0.000000e+000 -1.000000e+000  0.000000e+000
    outer loop
      vertex -2.680594e+001 -1.441210e+000  1.154701e+000
      vertex -1.701583e+001 -1.441210e+000  1.500000e+001
      vertex -2.980594e+001 -1.441210e+000 -1.776357e-015
    endloop
  endfacet
  facet normal  0.000000e+000 -1.000000e+000  0.000000e+000
    outer loop
      vertex -2.980594e+001 -1.441210e+000 -1.776357e-015
      vertex -1.701583e+001 -1.441210e+000  1.500000e+001
      vertex -1.919934e+001 -1.441210e+000  1.500000e+001
    endloop
  endfacet
  facet normal  0.000000e+000  -0.000000e+000 -1.000000e+000
    outer loop
      vertex -3.480593e+001 -1.441210e+000 -2.000000e+000
      vertex -3.380593e+001  2.260062e+000 -2.000000e+000
      vertex -3.336660e+001  1.199402e+000 -2.000000e+000
    endloop
  endfacet
  facet normal  0.000000e+000  -0.000000e+000 -9.999999e-001
    outer loop
      vertex -3.480593e+001 -1.441210e+000 -2.000000e+000
      vertex -3.336660e+001  1.199402e+000 -2.000000e+000
      vertex -3.230593e+001  7.600617e-001 -2.000000e+000
    endloop
  endfacet
  facet normal  0.000000e+000  -0.000000e+000 -1.000000e+000
    outer loop
      vertex -3.480593e+001 -1.441210e+000 -2.000000e+000
      vertex -3.230593e+001  7.600617e-001 -2.000000e+000
      vertex -2.317294e+001 -1.441210e+000 -2.000000e+000
    endloop
  endfacet
  facet normal  0.000000e+000  0.000000e+000 -1.000000e+000
    outer loop
      vertex -9.805936e+000  1.192580e+001 -2.000000e+000
      vertex -2.317294e+001  1.192580e+001 -2.000000e+000
      vertex -3.087121e+001  1.828049e+001 -2.000000e+000
    endloop
  endfacet
  facet normal  0.000000e+000  0.000000e+000 -1.000000e+000
    outer loop
      vertex -9.805936e+000  1.192580e+001 -2.000000e+000
      vertex -3.087121e+001  1.828049e+001 -2.000000e+000
      vertex -1.350756e+001  1.955879e+001 -2.000000e+000
    endloop
  endfacet
  facet normal  0.000000e+000  0.000000e+000 -1.000000e+000
    outer loop
      vertex -9.805936e+000  1.192580e+001 -2.000000e+000
      vertex -1.350756e+001  1.955879e+001 -2.000000e+000
      vertex -1.244690e+001  1.999813e+001 -2.000000e+000
    endloop
  endfacet
  facet normal  0.000000e+000  0.000000e+000 -1.000000e+000
    outer loop
      vertex -9.805936e+000  1.192580e+001 -2.000000e+000
      vertex -1.244690e+001  1.999813e+001 -2.000000e+000
      vertex -1.200756e+001  2.105879e+001 -2.000000e+000
    endloop
  endfacet
  facet normal  0.000000e+000  -0.000000e+000 -1.000000e+000
    outer loop
      vertex -3.480593e+001  1.855879e+001 -2.000000e+000
      vertex -3.413606e+001  2.105879e+001 -2.000000e+000
      vertex -3.237121e+001  1.978049e+001 -2.000000e+000
    endloop
  endfacet
  facet normal  0.000000e+000  -0.000000e+000 -1.000000e+000
    outer loop
      vertex -3.480593e+001  1.855879e+001 -2.000000e+000
      vertex -3.237121e+001  1.978049e+001 -2.000000e+000
      vertex -3.193187e+001  1.871983e+001 -2.000000e+000
    endloop
  endfacet
  facet normal  0.000000e+000  0.000000e+000 -1.000000e+000
    outer loop
      vertex -3.480593e+001  1.855879e+001 -2.000000e+000
      vertex -3.193187e+001  1.871983e+001 -2.000000e+000
      vertex -3.230593e+001  3.760062e+000 -2.000000e+000
    endloop
  endfacet
  facet normal  -0.000000e+000  0.000000e+000 -1.000000e+000
    outer loop
      vertex -3.480593e+001  1.855879e+001 -2.000000e+000
      vertex -3.230593e+001  3.760062e+000 -2.000000e+000
      vertex -3.336660e+001  3.320722e+000 -2.000000e+000
    endloop
  endfacet
  facet normal  -0.000000e+000  0.000000e+000 -1.000000e+000
    outer loop
      vertex -3.480593e+001  1.855879e+001 -2.000000e+000
      vertex -3.336660e+001  3.320722e+000 -2.000000e+000
      vertex -3.380593e+001  2.260062e+000 -2.000000e+000
    endloop
  endfacet
  facet normal  -0.000000e+000  0.000000e+000 -1.000000e+000
    outer loop
      vertex -3.480593e+001  1.855879e+001 -2.000000e+000
      vertex -3.380593e+001  2.260062e+000 -2.000000e+000
      vertex -3.480593e+001 -1.441210e+000 -2.000000e+000
    endloop
  endfacet
  facet normal  0.000000e+000  0.000000e+000 -1.000000e+000
    outer loop
      vertex -2.317294e+001 -1.441210e+000 -2.000000e+000
      vertex -3.230593e+001  7.600617e-001 -2.000000e+000
      vertex -3.124528e+001  1.199402e+000 -2.000000e+000
    endloop
  endfacet
  facet normal  0.000000e+000  0.000000e+000 -1.000000e+000
    outer loop
      vertex -2.317294e+001 -1.441210e+000 -2.000000e+000
      vertex -3.124528e+001  1.199402e+000 -2.000000e+000
      vertex -3.080594e+001  2.260062e+000 -2.000000e+000
    endloop
  endfacet
  facet normal  0.000000e+000  0.000000e+000 -1.000000e+000
    outer loop
      vertex -2.317294e+001 -1.441210e+000 -2.000000e+000
      vertex -3.080594e+001  2.260062e+000 -2.000000e+000
      vertex -3.124528e+001  3.320722e+000 -2.000000e+000
    endloop
  endfacet
  facet normal  0.000000e+000  0.000000e+000 -9.999999e-001
    outer loop
      vertex -2.317294e+001 -1.441210e+000 -2.000000e+000
      vertex -3.124528e+001  3.320722e+000 -2.000000e+000
      vertex -2.317294e+001  1.192580e+001 -2.000000e+000
    endloop
  endfacet
  facet normal  0.000000e+000  0.000000e+000 -1.000000e+000
    outer loop
      vertex -9.805936e+000  2.355879e+001 -2.000000e+000
      vertex -9.805936e+000  1.192580e+001 -2.000000e+000
      vertex -1.200756e+001  2.105879e+001 -2.000000e+000
    endloop
  endfacet
  facet normal  0.000000e+000  0.000000e+000 -9.999999e-001
    outer loop
      vertex -9.805936e+000  2.355879e+001 -2.000000e+000
      vertex -1.200756e+001  2.105879e+001 -2.000000e+000
      vertex -1.244690e+001  2.211945e+001 -2.000000e+000
    endloop
  endfacet
  facet normal  0.000000e+000  0.000000e+000 -1.000000e+000
    outer loop
      vertex -9.805936e+000  2.355879e+001 -2.000000e+000
      vertex -1.244690e+001  2.211945e+001 -2.000000e+000
      vertex -1.350756e+001  2.255879e+001 -2.000000e+000
    endloop
  endfacet
  facet normal  0.000000e+000  0.000000e+000 -1.000000e+000
    outer loop
      vertex -9.805936e+000  2.355879e+001 -2.000000e+000
      vertex -1.350756e+001  2.255879e+001 -2.000000e+000
      vertex -3.230593e+001  2.288892e+001 -2.000000e+000
    endloop
  endfacet
  facet normal  0.000000e+000  0.000000e+000 -1.000000e+000
    outer loop
      vertex -9.805936e+000  2.355879e+001 -2.000000e+000
      vertex -3.230593e+001  2.288892e+001 -2.000000e+000
      vertex -2.980594e+001  2.355879e+001 -2.000000e+000
    endloop
  endfacet
  facet normal  0.000000e+000  0.000000e+000 -1.000000e+000
    outer loop
      vertex -3.087121e+001  2.128049e+001 -2.000000e+000
      vertex -3.193187e+001  2.084115e+001 -2.000000e+000
      vertex -3.230593e+001  2.288892e+001 -2.000000e+000
    endloop
  endfacet
  facet normal  0.000000e+000  -0.000000e+000 -1.000000e+000
    outer loop
      vertex -3.230593e+001  2.288892e+001 -2.000000e+000
      vertex -3.193187e+001  2.084115e+001 -2.000000e+000
      vertex -3.237121e+001  1.978049e+001 -2.000000e+000
    endloop
  endfacet
  facet normal  0.000000e+000  0.000000e+000 -1.000000e+000
    outer loop
      vertex -3.230593e+001  2.288892e+001 -2.000000e+000
      vertex -3.237121e+001  1.978049e+001 -2.000000e+000
      vertex -3.413606e+001  2.105879e+001 -2.000000e+000
    endloop
  endfacet
  facet normal  0.000000e+000  -0.000000e+000 -1.000000e+000
    outer loop
      vertex -3.087121e+001  1.828049e+001 -2.000000e+000
      vertex -2.981055e+001  1.871983e+001 -2.000000e+000
      vertex -1.350756e+001  1.955879e+001 -2.000000e+000
    endloop
  endfacet
  facet normal  -0.000000e+000  0.000000e+000 -1.000000e+000
    outer loop
      vertex -1.350756e+001  1.955879e+001 -2.000000e+000
      vertex -2.981055e+001  1.871983e+001 -2.000000e+000
      vertex -2.937121e+001  1.978049e+001 -2.000000e+000
    endloop
  endfacet
  facet normal  0.000000e+000  0.000000e+000 -1.000000e+000
    outer loop
      vertex -1.350756e+001  1.955879e+001 -2.000000e+000
      vertex -2.937121e+001  1.978049e+001 -2.000000e+000
      vertex -1.456822e+001  1.999813e+001 -2.000000e+000
    endloop
  endfacet
  facet normal  -0.000000e+000  0.000000e+000 -1.000000e+000
    outer loop
      vertex -1.456822e+001  1.999813e+001 -2.000000e+000
      vertex -2.937121e+001  1.978049e+001 -2.000000e+000
      vertex -2.981055e+001  2.084115e+001 -2.000000e+000
    endloop
  endfacet
  facet normal  0.000000e+000  0.000000e+000 -1.000000e+000
    outer loop
      vertex -1.456822e+001  1.999813e+001 -2.000000e+000
      vertex -2.981055e+001  2.084115e+001 -2.000000e+000
      vertex -1.500756e+001  2.105879e+001 -2.000000e+000
    endloop
  endfacet
  facet normal  -0.000000e+000  0.000000e+000 -1.000000e+000
    outer loop
      vertex -1.500756e+001  2.105879e+001 -2.000000e+000
      vertex -2.981055e+001  2.084115e+001 -2.000000e+000
      vertex -3.087121e+001  2.128049e+001 -2.000000e+000
    endloop
  endfacet
  facet normal  0.000000e+000  0.000000e+000 -1.000000e+000
    outer loop
      vertex -1.500756e+001  2.105879e+001 -2.000000e+000
      vertex -3.087121e+001  2.128049e+001 -2.000000e+000
      vertex -1.456822e+001  2.211945e+001 -2.000000e+000
    endloop
  endfacet
  facet normal  -0.000000e+000  0.000000e+000 -1.000000e+000
    outer loop
      vertex -1.456822e+001  2.211945e+001 -2.000000e+000
      vertex -3.087121e+001  2.128049e+001 -2.000000e+000
      vertex -3.230593e+001  2.288892e+001 -2.000000e+000
    endloop
  endfacet
  facet normal  0.000000e+000  0.000000e+000 -1.000000e+000
    outer loop
      vertex -1.456822e+001  2.211945e+001 -2.000000e+000
      vertex -3.230593e+001  2.288892e+001 -2.000000e+000
      vertex -1.350756e+001  2.255879e+001 -2.000000e+000
    endloop
  endfacet
  facet normal  -0.000000e+000  0.000000e+000 -1.000000e+000
    outer loop
      vertex -3.193187e+001  1.871983e+001 -2.000000e+000
      vertex -3.087121e+001  1.828049e+001 -2.000000e+000
      vertex -3.230593e+001  3.760062e+000 -2.000000e+000
    endloop
  endfacet
  facet normal  0.000000e+000  0.000000e+000 -9.999999e-001
    outer loop
      vertex -3.230593e+001  3.760062e+000 -2.000000e+000
      vertex -3.087121e+001  1.828049e+001 -2.000000e+000
      vertex -2.317294e+001  1.192580e+001 -2.000000e+000
    endloop
  endfacet
  facet normal  0.000000e+000  0.000000e+000 -1.000000e+000
    outer loop
      vertex -3.230593e+001  3.760062e+000 -2.000000e+000
      vertex -2.317294e+001  1.192580e+001 -2.000000e+000
      vertex -3.124528e+001  3.320722e+000 -2.000000e+000
    endloop
  endfacet
  facet normal  1.000000e+000  -0.000000e+000  0.000000e+000
    outer loop
      vertex -9.805936e+000  7.952188e+000  1.500000e+001
      vertex -9.805936e+000  5.768684e+000  1.500000e+001
      vertex -9.805936e+000  1.855879e+001 -8.881784e-016
    endloop
  endfacet
  facet normal  1.000000e+000  0.000000e+000  0.000000e+000
    outer loop
      vertex -9.805936e+000  1.855879e+001 -8.881784e-016
      vertex -9.805936e+000  5.768684e+000  1.500000e+001
      vertex -9.805936e+000  1.555879e+001  1.154701e+000
    endloop
  endfacet
  facet normal  1.000000e+000  0.000000e+000  0.000000e+000
    outer loop
      vertex -9.805936e+000  1.855879e+001 -8.881784e-016
      vertex -9.805936e+000  1.555879e+001  1.154701e+000
      vertex -9.805936e+000  1.192580e+001 -2.000000e+000
    endloop
  endfacet
  facet normal  9.999999e-001  0.000000e+000  0.000000e+000
    outer loop
      vertex -9.805936e+000  1.192580e+001 -2.000000e+000
      vertex -9.805936e+000  1.555879e+001  1.154701e+000
      vertex -9.805936e+000  1.392580e+001  1.947893e-014
    endloop
  endfacet
  facet normal  1.000000e+000  0.000000e+000  0.000000e+000
    outer loop
      vertex -9.805936e+000  1.192580e+001 -2.000000e+000
      vertex -9.805936e+000  1.392580e+001  1.947893e-014
      vertex -9.805936e+000  1.192580e+001  0.000000e+000
    endloop
  endfacet
  facet normal  1.000000e+000  0.000000e+000  0.000000e+000
    outer loop
      vertex -9.805936e+000  1.192580e+001  0.000000e+000
      vertex -9.805936e+000  1.392580e+001  1.947893e-014
      vertex -9.805936e+000  1.319195e+000  1.500000e+001
    endloop
  endfacet
  facet normal  1.000000e+000  -0.000000e+000  0.000000e+000
    outer loop
      vertex -9.805936e+000  1.319195e+000  1.500000e+001
      vertex -9.805936e+000  1.392580e+001  1.947893e-014
      vertex -9.805936e+000  3.319195e+000  1.500000e+001
    endloop
  endfacet
  facet normal  9.999999e-001  0.000000e+000  0.000000e+000
    outer loop
      vertex -9.805936e+000  2.355879e+001 -2.000000e+000
      vertex -9.805936e+000  2.355879e+001  0.000000e+000
      vertex -9.805936e+000  1.192580e+001 -2.000000e+000
    endloop
  endfacet
  facet normal  1.000000e+000  0.000000e+000  0.000000e+000
    outer loop
      vertex -9.805936e+000  1.192580e+001 -2.000000e+000
      vertex -9.805936e+000  2.355879e+001  0.000000e+000
      vertex -9.805936e+000  1.855879e+001 -8.881784e-016
    endloop
  endfacet
  facet normal  3.826828e-001  9.238798e-001  -0.000000e+000
    outer loop
      vertex -3.087121e+001  1.828049e+001  0.000000e+000
      vertex -3.193187e+001  1.871983e+001 -2.000000e+000
      vertex -3.193187e+001  1.871983e+001  0.000000e+000
    endloop
  endfacet
  facet normal  9.238800e-001  3.826822e-001  0.000000e+000
    outer loop
      vertex -3.193187e+001  1.871983e+001  0.000000e+000
      vertex -3.193187e+001  1.871983e+001 -2.000000e+000
      vertex -3.237121e+001  1.978049e+001 -2.000000e+000
    endloop
  endfacet
  facet normal  9.238800e-001  3.826822e-001  -0.000000e+000
    outer loop
      vertex -3.193187e+001  1.871983e+001  0.000000e+000
      vertex -3.237121e+001  1.978049e+001 -2.000000e+000
      vertex -3.237121e+001  1.978049e+001  0.000000e+000
    endloop
  endfacet
  facet normal  3.826828e-001  9.238798e-001  0.000000e+000
    outer loop
      vertex -3.193187e+001  1.871983e+001 -2.000000e+000
      vertex -3.087121e+001  1.828049e+001  0.000000e+000
      vertex -3.087121e+001  1.828049e+001 -2.000000e+000
    endloop
  endfacet
  facet normal -3.826822e-001  9.238800e-001  0.000000e+000
    outer loop
      vertex -3.087121e+001  1.828049e+001 -2.000000e+000
      vertex -3.087121e+001  1.828049e+001  0.000000e+000
      vertex -2.981055e+001  1.871983e+001  0.000000e+000
    endloop
  endfacet
  facet normal -3.826822e-001  9.238800e-001  0.000000e+000
    outer loop
      vertex -3.087121e+001  1.828049e+001 -2.000000e+000
      vertex -2.981055e+001  1.871983e+001  0.000000e+000
      vertex -2.981055e+001  1.871983e+001 -2.000000e+000
    endloop
  endfacet
  facet normal -9.238800e-001  3.826822e-001  0.000000e+000
    outer loop
      vertex -2.981055e+001  1.871983e+001 -2.000000e+000
      vertex -2.981055e+001  1.871983e+001  0.000000e+000
      vertex -2.937121e+001  1.978049e+001  0.000000e+000
    endloop
  endfacet
  facet normal -9.238800e-001  3.826822e-001  0.000000e+000
    outer loop
      vertex -2.981055e+001  1.871983e+001 -2.000000e+000
      vertex -2.937121e+001  1.978049e+001  0.000000e+000
      vertex -2.937121e+001  1.978049e+001 -2.000000e+000
    endloop
  endfacet
  facet normal -3.826837e-001 -9.238795e-001  0.000000e+000
    outer loop
      vertex -3.087121e+001  2.128049e+001  0.000000e+000
      vertex -2.981055e+001  2.084115e+001 -2.000000e+000
      vertex -2.981055e+001  2.084115e+001  0.000000e+000
    endloop
  endfacet
  facet normal -9.238798e-001 -3.826828e-001  -0.000000e+000
    outer loop
      vertex -2.981055e+001  2.084115e+001  0.000000e+000
      vertex -2.981055e+001  2.084115e+001 -2.000000e+000
      vertex -2.937121e+001  1.978049e+001 -2.000000e+000
    endloop
  endfacet
  facet normal -9.238798e-001 -3.826828e-001  0.000000e+000
    outer loop
      vertex -2.981055e+001  2.084115e+001  0.000000e+000
      vertex -2.937121e+001  1.978049e+001 -2.000000e+000
      vertex -2.937121e+001  1.978049e+001  0.000000e+000
    endloop
  endfacet
  facet normal -3.826837e-001 -9.238795e-001  -0.000000e+000
    outer loop
      vertex -2.981055e+001  2.084115e+001 -2.000000e+000
      vertex -3.087121e+001  2.128049e+001  0.000000e+000
      vertex -3.087121e+001  2.128049e+001 -2.000000e+000
    endloop
  endfacet
  facet normal  3.826842e-001 -9.238791e-001  0.000000e+000
    outer loop
      vertex -3.087121e+001  2.128049e+001 -2.000000e+000
      vertex -3.087121e+001  2.128049e+001  0.000000e+000
      vertex -3.193187e+001  2.084115e+001  0.000000e+000
    endloop
  endfacet
  facet normal  3.826842e-001 -9.238791e-001  0.000000e+000
    outer loop
      vertex -3.087121e+001  2.128049e+001 -2.000000e+000
      vertex -3.193187e+001  2.084115e+001  0.000000e+000
      vertex -3.193187e+001  2.084115e+001 -2.000000e+000
    endloop
  endfacet
  facet normal  9.238798e-001 -3.826828e-001  0.000000e+000
    outer loop
      vertex -3.193187e+001  2.084115e+001 -2.000000e+000
      vertex -3.193187e+001  2.084115e+001  0.000000e+000
      vertex -3.237121e+001  1.978049e+001  0.000000e+000
    endloop
  endfacet
  facet normal  9.238798e-001 -3.826828e-001  0.000000e+000
    outer loop
      vertex -3.193187e+001  2.084115e+001 -2.000000e+000
      vertex -3.237121e+001  1.978049e+001  0.000000e+000
      vertex -3.237121e+001  1.978049e+001 -2.000000e+000
    endloop
  endfacet
  facet normal  3.826831e-001  9.238797e-001  -0.000000e+000
    outer loop
      vertex -3.230593e+001  7.600617e-001  0.000000e+000
      vertex -3.336660e+001  1.199402e+000 -2.000000e+000
      vertex -3.336660e+001  1.199402e+000  0.000000e+000
    endloop
  endfacet
  facet normal  9.238799e-001  3.826826e-001  0.000000e+000
    outer loop
      vertex -3.336660e+001  1.199402e+000  0.000000e+000
      vertex -3.336660e+001  1.199402e+000 -2.000000e+000
      vertex -3.380593e+001  2.260062e+000 -2.000000e+000
    endloop
  endfacet
  facet normal  9.238799e-001  3.826826e-001  -0.000000e+000
    outer loop
      vertex -3.336660e+001  1.199402e+000  0.000000e+000
      vertex -3.380593e+001  2.260062e+000 -2.000000e+000
      vertex -3.380593e+001  2.260062e+000  0.000000e+000
    endloop
  endfacet
  facet normal  3.826831e-001  9.238797e-001  0.000000e+000
    outer loop
      vertex -3.336660e+001  1.199402e+000 -2.000000e+000
      vertex -3.230593e+001  7.600617e-001  0.000000e+000
      vertex -3.230593e+001  7.600617e-001 -2.000000e+000
    endloop
  endfacet
  facet normal -3.826837e-001  9.238794e-001  0.000000e+000
    outer loop
      vertex -3.230593e+001  7.600617e-001 -2.000000e+000
      vertex -3.230593e+001  7.600617e-001  0.000000e+000
      vertex -3.124528e+001  1.199402e+000  0.000000e+000
    endloop
  endfacet
  facet normal -3.826837e-001  9.238794e-001  0.000000e+000
    outer loop
      vertex -3.230593e+001  7.600617e-001 -2.000000e+000
      vertex -3.124528e+001  1.199402e+000  0.000000e+000
      vertex -3.124528e+001  1.199402e+000 -2.000000e+000
    endloop
  endfacet
  facet normal -9.238799e-001  3.826826e-001  0.000000e+000
    outer loop
      vertex -3.124528e+001  1.199402e+000 -2.000000e+000
      vertex -3.124528e+001  1.199402e+000  0.000000e+000
      vertex -3.080594e+001  2.260062e+000  0.000000e+000
    endloop
  endfacet
  facet normal -9.238799e-001  3.826826e-001  0.000000e+000
    outer loop
      vertex -3.124528e+001  1.199402e+000 -2.000000e+000
      vertex -3.080594e+001  2.260062e+000  0.000000e+000
      vertex -3.080594e+001  2.260062e+000 -2.000000e+000
    endloop
  endfacet
  facet normal -3.826837e-001 -9.238794e-001  0.000000e+000
    outer loop
      vertex -3.230593e+001  3.760062e+000  0.000000e+000
      vertex -3.124528e+001  3.320722e+000 -2.000000e+000
      vertex -3.124528e+001  3.320722e+000  0.000000e+000
    endloop
  endfacet
  facet normal -9.238799e-001 -3.826826e-001  -0.000000e+000
    outer loop
      vertex -3.124528e+001  3.320722e+000  0.000000e+000
      vertex -3.124528e+001  3.320722e+000 -2.000000e+000
      vertex -3.080594e+001  2.260062e+000 -2.000000e+000
    endloop
  endfacet
  facet normal -9.238799e-001 -3.826826e-001  0.000000e+000
    outer loop
      vertex -3.124528e+001  3.320722e+000  0.000000e+000
      vertex -3.080594e+001  2.260062e+000 -2.000000e+000
      vertex -3.080594e+001  2.260062e+000  0.000000e+000
    endloop
  endfacet
  facet normal -3.826837e-001 -9.238794e-001  -0.000000e+000
    outer loop
      vertex -3.124528e+001  3.320722e+000 -2.000000e+000
      vertex -3.230593e+001  3.760062e+000  0.000000e+000
      vertex -3.230593e+001  3.760062e+000 -2.000000e+000
    endloop
  endfacet
  facet normal  3.826831e-001 -9.238797e-001  0.000000e+000
    outer loop
      vertex -3.230593e+001  3.760062e+000 -2.000000e+000
      vertex -3.230593e+001  3.760062e+000  0.000000e+000
      vertex -3.336660e+001  3.320722e+000  0.000000e+000
    endloop
  endfacet
  facet normal  3.826831e-001 -9.238797e-001  0.000000e+000
    outer loop
      vertex -3.230593e+001  3.760062e+000 -2.000000e+000
      vertex -3.336660e+001  3.320722e+000  0.000000e+000
      vertex -3.336660e+001  3.320722e+000 -2.000000e+000
    endloop
  endfacet
  facet normal  9.238799e-001 -3.826826e-001  0.000000e+000
    outer loop
      vertex -3.336660e+001  3.320722e+000 -2.000000e+000
      vertex -3.336660e+001  3.320722e+000  0.000000e+000
      vertex -3.380593e+001  2.260062e+000  0.000000e+000
    endloop
  endfacet
  facet normal  9.238799e-001 -3.826826e-001  0.000000e+000
    outer loop
      vertex -3.336660e+001  3.320722e+000 -2.000000e+000
      vertex -3.380593e+001  2.260062e+000  0.000000e+000
      vertex -3.380593e+001  2.260062e+000 -2.000000e+000
    endloop
  endfacet
  facet normal  3.826825e-001  9.238799e-001  -0.000000e+000
    outer loop
      vertex -1.350756e+001  1.955879e+001  0.000000e+000
      vertex -1.456822e+001  1.999813e+001 -2.000000e+000
      vertex -1.456822e+001  1.999813e+001  0.000000e+000
    endloop
  endfacet
  facet normal  9.238797e-001  3.826829e-001  0.000000e+000
    outer loop
      vertex -1.456822e+001  1.999813e+001  0.000000e+000
      vertex -1.456822e+001  1.999813e+001 -2.000000e+000
      vertex -1.500756e+001  2.105879e+001 -2.000000e+000
    endloop
  endfacet
  facet normal  9.238797e-001  3.826829e-001  -0.000000e+000
    outer loop
      vertex -1.456822e+001  1.999813e+001  0.000000e+000
      vertex -1.500756e+001  2.105879e+001 -2.000000e+000
      vertex -1.500756e+001  2.105879e+001  0.000000e+000
    endloop
  endfacet
  facet normal  3.826825e-001  9.238799e-001  0.000000e+000
    outer loop
      vertex -1.456822e+001  1.999813e+001 -2.000000e+000
      vertex -1.350756e+001  1.955879e+001  0.000000e+000
      vertex -1.350756e+001  1.955879e+001 -2.000000e+000
    endloop
  endfacet
  facet normal -3.826825e-001  9.238799e-001  0.000000e+000
    outer loop
      vertex -1.350756e+001  1.955879e+001 -2.000000e+000
      vertex -1.350756e+001  1.955879e+001  0.000000e+000
      vertex -1.244690e+001  1.999813e+001  0.000000e+000
    endloop
  endfacet
  facet normal -3.826825e-001  9.238799e-001  0.000000e+000
    outer loop
      vertex -1.350756e+001  1.955879e+001 -2.000000e+000
      vertex -1.244690e+001  1.999813e+001  0.000000e+000
      vertex -1.244690e+001  1.999813e+001 -2.000000e+000
    endloop
  endfacet
  facet normal -9.238797e-001  3.826829e-001  0.000000e+000
    outer loop
      vertex -1.244690e+001  1.999813e+001 -2.000000e+000
      vertex -1.244690e+001  1.999813e+001  0.000000e+000
      vertex -1.200756e+001  2.105879e+001  0.000000e+000
    endloop
  endfacet
  facet normal -9.238797e-001  3.826829e-001  0.000000e+000
    outer loop
      vertex -1.244690e+001  1.999813e+001 -2.000000e+000
      vertex -1.200756e+001  2.105879e+001  0.000000e+000
      vertex -1.200756e+001  2.105879e+001 -2.000000e+000
    endloop
  endfacet
  facet normal -3.826839e-001 -9.238793e-001  0.000000e+000
    outer loop
      vertex -1.350756e+001  2.255879e+001  0.000000e+000
      vertex -1.244690e+001  2.211945e+001 -2.000000e+000
      vertex -1.244690e+001  2.211945e+001  0.000000e+000
    endloop
  endfacet
  facet normal -9.238796e-001 -3.826835e-001  -0.000000e+000
    outer loop
      vertex -1.244690e+001  2.211945e+001  0.000000e+000
      vertex -1.244690e+001  2.211945e+001 -2.000000e+000
      vertex -1.200756e+001  2.105879e+001 -2.000000e+000
    endloop
  endfacet
  facet normal -9.238796e-001 -3.826835e-001  0.000000e+000
    outer loop
      vertex -1.244690e+001  2.211945e+001  0.000000e+000
      vertex -1.200756e+001  2.105879e+001 -2.000000e+000
      vertex -1.200756e+001  2.105879e+001  0.000000e+000
    endloop
  endfacet
  facet normal -3.826839e-001 -9.238793e-001  -0.000000e+000
    outer loop
      vertex -1.244690e+001  2.211945e+001 -2.000000e+000
      vertex -1.350756e+001  2.255879e+001  0.000000e+000
      vertex -1.350756e+001  2.255879e+001 -2.000000e+000
    endloop
  endfacet
  facet normal  3.826839e-001 -9.238793e-001  0.000000e+000
    outer loop
      vertex -1.350756e+001  2.255879e+001 -2.000000e+000
      vertex -1.350756e+001  2.255879e+001  0.000000e+000
      vertex -1.456822e+001  2.211945e+001  0.000000e+000
    endloop
  endfacet
  facet normal  3.826839e-001 -9.238793e-001  0.000000e+000
    outer loop
      vertex -1.350756e+001  2.255879e+001 -2.000000e+000
      vertex -1.456822e+001  2.211945e+001  0.000000e+000
      vertex -1.456822e+001  2.211945e+001 -2.000000e+000
    endloop
  endfacet
  facet normal  9.238796e-001 -3.826835e-001  0.000000e+000
    outer loop
      vertex -1.456822e+001  2.211945e+001 -2.000000e+000
      vertex -1.456822e+001  2.211945e+001  0.000000e+000
      vertex -1.500756e+001  2.105879e+001  0.000000e+000
    endloop
  endfacet
  facet normal  9.238796e-001 -3.826835e-001  0.000000e+000
    outer loop
      vertex -1.456822e+001  2.211945e+001 -2.000000e+000
      vertex -1.500756e+001  2.105879e+001  0.000000e+000
      vertex -1.500756e+001  2.105879e+001 -2.000000e+000
    endloop
  endfacet
  facet normal -2.588197e-001  9.659257e-001  0.000000e+000
    outer loop
      vertex -2.980594e+001  2.355879e+001  0.000000e+000
      vertex -2.980594e+001  2.355879e+001 -2.000000e+000
      vertex -3.230593e+001  2.288892e+001  0.000000e+000
    endloop
  endfacet
  facet normal -2.588197e-001  9.659257e-001  0.000000e+000
    outer loop
      vertex -3.230593e+001  2.288892e+001  0.000000e+000
      vertex -2.980594e+001  2.355879e+001 -2.000000e+000
      vertex -3.230593e+001  2.288892e+001 -2.000000e+000
    endloop
  endfacet
  facet normal -7.071064e-001  7.071072e-001  0.000000e+000
    outer loop
      vertex -3.230593e+001  2.288892e+001  0.000000e+000
      vertex -3.230593e+001  2.288892e+001 -2.000000e+000
      vertex -3.413606e+001  2.105879e+001  0.000000e+000
    endloop
  endfacet
  facet normal -7.071064e-001  7.071072e-001  0.000000e+000
    outer loop
      vertex -3.413606e+001  2.105879e+001  0.000000e+000
      vertex -3.230593e+001  2.288892e+001 -2.000000e+000
      vertex -3.413606e+001  2.105879e+001 -2.000000e+000
    endloop
  endfacet
  facet normal -9.659259e-001  2.588188e-001  0.000000e+000
    outer loop
      vertex -3.413606e+001  2.105879e+001  0.000000e+000
      vertex -3.413606e+001  2.105879e+001 -2.000000e+000
      vertex -3.480593e+001  1.855879e+001  0.000000e+000
    endloop
  endfacet
  facet normal -9.659259e-001  2.588188e-001  0.000000e+000
    outer loop
      vertex -3.480593e+001  1.855879e+001  0.000000e+000
      vertex -3.413606e+001  2.105879e+001 -2.000000e+000
      vertex -3.480593e+001  1.855879e+001 -2.000000e+000
    endloop
  endfacet
  facet normal  3.826832e-001  5.334021e-001 -7.543445e-001
    outer loop
      vertex -1.321320e+001  1.124993e+001  1.033628e+001
      vertex -1.392030e+001  9.963367e+000  9.067824e+000
      vertex -1.392030e+001  1.141903e+001  1.009714e+001
    endloop
  endfacet
  facet normal  9.238794e-001  2.209425e-001 -3.124599e-001
    outer loop
      vertex -1.392030e+001  1.141903e+001  1.009714e+001
      vertex -1.392030e+001  9.963367e+000  9.067824e+000
      vertex -1.421320e+001  1.037161e+001  8.490474e+000
    endloop
  endfacet
  facet normal  9.238796e-001  2.209422e-001 -3.124597e-001
    outer loop
      vertex -1.392030e+001  1.141903e+001  1.009714e+001
      vertex -1.421320e+001  1.037161e+001  8.490474e+000
      vertex -1.421320e+001  1.182728e+001  9.519787e+000
    endloop
  endfacet
  facet normal  3.826839e-001  5.334018e-001 -7.543445e-001
    outer loop
      vertex -1.392030e+001  9.963367e+000  9.067824e+000
      vertex -1.321320e+001  1.124993e+001  1.033628e+001
      vertex -1.321320e+001  9.794264e+000  9.306971e+000
    endloop
  endfacet
  facet normal -3.826833e-001  5.334019e-001 -7.543447e-001
    outer loop
      vertex -1.321320e+001  9.794264e+000  9.306971e+000
      vertex -1.321320e+001  1.124993e+001  1.033628e+001
      vertex -1.250609e+001  1.141903e+001  1.009714e+001
    endloop
  endfacet
  facet normal -3.826839e-001  5.334020e-001 -7.543443e-001
    outer loop
      vertex -1.321320e+001  9.794264e+000  9.306971e+000
      vertex -1.250609e+001  1.141903e+001  1.009714e+001
      vertex -1.250609e+001  9.963367e+000  9.067824e+000
    endloop
  endfacet
  facet normal -9.238796e-001  2.209423e-001 -3.124596e-001
    outer loop
      vertex -1.250609e+001  9.963367e+000  9.067824e+000
      vertex -1.250609e+001  1.141903e+001  1.009714e+001
      vertex -1.221320e+001  1.182728e+001  9.519787e+000
    endloop
  endfacet
  facet normal -9.238794e-001  2.209424e-001 -3.124599e-001
    outer loop
      vertex -1.250609e+001  9.963367e+000  9.067824e+000
      vertex -1.221320e+001  1.182728e+001  9.519787e+000
      vertex -1.221320e+001  1.037161e+001  8.490474e+000
    endloop
  endfacet
  facet normal  3.826837e-001  5.334021e-001 -7.543443e-001
    outer loop
      vertex -1.321320e+001  8.161271e+000  8.152270e+000
      vertex -1.392030e+001  6.997040e+000  6.970315e+000
      vertex -1.392030e+001  8.330373e+000  7.913124e+000
    endloop
  endfacet
  facet normal  9.238794e-001  2.209426e-001 -3.124599e-001
    outer loop
      vertex -1.392030e+001  8.330373e+000  7.913124e+000
      vertex -1.392030e+001  6.997040e+000  6.970315e+000
      vertex -1.421320e+001  7.405288e+000  6.392964e+000
    endloop
  endfacet
  facet normal  9.238795e-001  2.209424e-001 -3.124598e-001
    outer loop
      vertex -1.392030e+001  8.330373e+000  7.913124e+000
      vertex -1.421320e+001  7.405288e+000  6.392964e+000
      vertex -1.421320e+001  8.738622e+000  7.335773e+000
    endloop
  endfacet
  facet normal  3.826836e-001  5.334022e-001 -7.543443e-001
    outer loop
      vertex -1.392030e+001  6.997040e+000  6.970315e+000
      vertex -1.321320e+001  8.161271e+000  8.152270e+000
      vertex -1.321320e+001  6.827938e+000  7.209461e+000
    endloop
  endfacet
  facet normal -3.826837e-001  5.334021e-001 -7.543443e-001
    outer loop
      vertex -1.321320e+001  6.827938e+000  7.209461e+000
      vertex -1.321320e+001  8.161271e+000  8.152270e+000
      vertex -1.250609e+001  8.330373e+000  7.913124e+000
    endloop
  endfacet
  facet normal -3.826835e-001  5.334021e-001 -7.543443e-001
    outer loop
      vertex -1.321320e+001  6.827938e+000  7.209461e+000
      vertex -1.250609e+001  8.330373e+000  7.913124e+000
      vertex -1.250609e+001  6.997040e+000  6.970315e+000
    endloop
  endfacet
  facet normal -9.238795e-001  2.209425e-001 -3.124598e-001
    outer loop
      vertex -1.250609e+001  6.997040e+000  6.970315e+000
      vertex -1.250609e+001  8.330373e+000  7.913124e+000
      vertex -1.221320e+001  8.738622e+000  7.335773e+000
    endloop
  endfacet
  facet normal -9.238794e-001  2.209425e-001 -3.124599e-001
    outer loop
      vertex -1.250609e+001  6.997040e+000  6.970315e+000
      vertex -1.221320e+001  8.738622e+000  7.335773e+000
      vertex -1.221320e+001  7.405288e+000  6.392964e+000
    endloop
  endfacet
  facet normal -3.826833e-001 -5.334021e-001  7.543446e-001
    outer loop
      vertex -1.321320e+001  1.240463e+001  8.703291e+000
      vertex -1.250609e+001  1.077986e+001  7.913124e+000
      vertex -1.250609e+001  1.223553e+001  8.942437e+000
    endloop
  endfacet
  facet normal -9.238794e-001 -2.209426e-001  3.124600e-001
    outer loop
      vertex -1.250609e+001  1.223553e+001  8.942437e+000
      vertex -1.250609e+001  1.077986e+001  7.913124e+000
      vertex -1.221320e+001  1.037161e+001  8.490474e+000
    endloop
  endfacet
  facet normal -9.238793e-001 -2.209426e-001  3.124602e-001
    outer loop
      vertex -1.250609e+001  1.223553e+001  8.942437e+000
      vertex -1.221320e+001  1.037161e+001  8.490474e+000
      vertex -1.221320e+001  1.182728e+001  9.519787e+000
    endloop
  endfacet
  facet normal -3.826839e-001 -5.334021e-001  7.543442e-001
    outer loop
      vertex -1.250609e+001  1.077986e+001  7.913124e+000
      vertex -1.321320e+001  1.240463e+001  8.703291e+000
      vertex -1.321320e+001  1.094897e+001  7.673977e+000
    endloop
  endfacet
  facet normal  3.826833e-001 -5.334023e-001  7.543443e-001
    outer loop
      vertex -1.321320e+001  1.094897e+001  7.673977e+000
      vertex -1.321320e+001  1.240463e+001  8.703291e+000
      vertex -1.392030e+001  1.223553e+001  8.942437e+000
    endloop
  endfacet
  facet normal  3.826839e-001 -5.334019e-001  7.543443e-001
    outer loop
      vertex -1.321320e+001  1.094897e+001  7.673977e+000
      vertex -1.392030e+001  1.223553e+001  8.942437e+000
      vertex -1.392030e+001  1.077986e+001  7.913124e+000
    endloop
  endfacet
  facet normal  9.238793e-001 -2.209427e-001  3.124602e-001
    outer loop
      vertex -1.392030e+001  1.077986e+001  7.913124e+000
      vertex -1.392030e+001  1.223553e+001  8.942437e+000
      vertex -1.421320e+001  1.182728e+001  9.519787e+000
    endloop
  endfacet
  facet normal  9.238794e-001 -2.209425e-001  3.124601e-001
    outer loop
      vertex -1.392030e+001  1.077986e+001  7.913124e+000
      vertex -1.421320e+001  1.182728e+001  9.519787e+000
      vertex -1.421320e+001  1.037161e+001  8.490474e+000
    endloop
  endfacet
  facet normal -3.826837e-001 -5.334020e-001  7.543444e-001
    outer loop
      vertex -1.321320e+001  9.315971e+000  6.519277e+000
      vertex -1.250609e+001  7.813536e+000  5.815614e+000
      vertex -1.250609e+001  9.146870e+000  6.758423e+000
    endloop
  endfacet
  facet normal -9.238794e-001 -2.209426e-001  3.124600e-001
    outer loop
      vertex -1.250609e+001  9.146870e+000  6.758423e+000
      vertex -1.250609e+001  7.813536e+000  5.815614e+000
      vertex -1.221320e+001  7.405288e+000  6.392964e+000
    endloop
  endfacet
  facet normal -9.238794e-001 -2.209426e-001  3.124600e-001
    outer loop
      vertex -1.250609e+001  9.146870e+000  6.758423e+000
      vertex -1.221320e+001  7.405288e+000  6.392964e+000
      vertex -1.221320e+001  8.738622e+000  7.335773e+000
    endloop
  endfacet
  facet normal -3.826836e-001 -5.334020e-001  7.543445e-001
    outer loop
      vertex -1.250609e+001  7.813536e+000  5.815614e+000
      vertex -1.321320e+001  9.315971e+000  6.519277e+000
      vertex -1.321320e+001  7.982638e+000  5.576468e+000
    endloop
  endfacet
  facet normal  3.826837e-001 -5.334020e-001  7.543444e-001
    outer loop
      vertex -1.321320e+001  7.982638e+000  5.576468e+000
      vertex -1.321320e+001  9.315971e+000  6.519277e+000
      vertex -1.392030e+001  9.146870e+000  6.758423e+000
    endloop
  endfacet
  facet normal  3.826836e-001 -5.334020e-001  7.543445e-001
    outer loop
      vertex -1.321320e+001  7.982638e+000  5.576468e+000
      vertex -1.392030e+001  9.146870e+000  6.758423e+000
      vertex -1.392030e+001  7.813536e+000  5.815614e+000
    endloop
  endfacet
  facet normal  9.238794e-001 -2.209426e-001  3.124600e-001
    outer loop
      vertex -1.392030e+001  7.813536e+000  5.815614e+000
      vertex -1.392030e+001  9.146870e+000  6.758423e+000
      vertex -1.421320e+001  8.738622e+000  7.335773e+000
    endloop
  endfacet
  facet normal  9.238794e-001 -2.209426e-001  3.124600e-001
    outer loop
      vertex -1.392030e+001  7.813536e+000  5.815614e+000
      vertex -1.421320e+001  8.738622e+000  7.335773e+000
      vertex -1.421320e+001  7.405288e+000  6.392964e+000
    endloop
  endfacet
  facet normal -7.735455e-007 -8.164965e-001 -5.773505e-001
    outer loop
      vertex -1.392030e+001  9.963367e+000  9.067824e+000
      vertex -1.321320e+001  9.794264e+000  9.306971e+000
      vertex -1.538284e+001  5.768684e+000  1.500000e+001
    endloop
  endfacet
  facet normal -4.301960e-008 -8.164966e-001 -5.773503e-001
    outer loop
      vertex -9.805936e+000  1.555879e+001  1.154701e+000
      vertex -9.805936e+000  5.768684e+000  1.500000e+001
      vertex -1.221320e+001  1.037161e+001  8.490474e+000
    endloop
  endfacet
  facet normal  3.761808e-007 -8.164966e-001 -5.773501e-001
    outer loop
      vertex -9.805936e+000  1.555879e+001  1.154701e+000
      vertex -1.221320e+001  1.037161e+001  8.490474e+000
      vertex -1.250609e+001  1.077986e+001  7.913124e+000
    endloop
  endfacet
  facet normal -7.509084e-007 -8.164964e-001 -5.773504e-001
    outer loop
      vertex -9.805936e+000  1.555879e+001  1.154701e+000
      vertex -1.250609e+001  1.077986e+001  7.913124e+000
      vertex -1.321320e+001  1.094897e+001  7.673977e+000
    endloop
  endfacet
  facet normal  0.000000e+000 -8.164967e-001 -5.773503e-001
    outer loop
      vertex -9.805936e+000  1.555879e+001  1.154701e+000
      vertex -1.321320e+001  1.094897e+001  7.673977e+000
      vertex -2.517294e+001  1.555879e+001  1.154701e+000
    endloop
  endfacet
  facet normal  0.000000e+000 -8.164966e-001 -5.773503e-001
    outer loop
      vertex -9.805936e+000  5.768684e+000  1.500000e+001
      vertex -1.538284e+001  5.768684e+000  1.500000e+001
      vertex -1.321320e+001  9.794264e+000  9.306971e+000
    endloop
  endfacet
  facet normal  7.262461e-007 -8.164964e-001 -5.773506e-001
    outer loop
      vertex -9.805936e+000  5.768684e+000  1.500000e+001
      vertex -1.321320e+001  9.794264e+000  9.306971e+000
      vertex -1.250609e+001  9.963367e+000  9.067824e+000
    endloop
  endfacet
  facet normal -9.361937e-007 -8.164967e-001 -5.773500e-001
    outer loop
      vertex -9.805936e+000  5.768684e+000  1.500000e+001
      vertex -1.250609e+001  9.963367e+000  9.067824e+000
      vertex -1.221320e+001  1.037161e+001  8.490474e+000
    endloop
  endfacet
  facet normal  5.453073e-007 -8.164962e-001 -5.773509e-001
    outer loop
      vertex -2.517294e+001  1.555879e+001  1.154701e+000
      vertex -1.321320e+001  1.094897e+001  7.673977e+000
      vertex -1.392030e+001  1.077986e+001  7.913124e+000
    endloop
  endfacet
  facet normal -1.757904e-007 -8.164967e-001 -5.773501e-001
    outer loop
      vertex -2.517294e+001  1.555879e+001  1.154701e+000
      vertex -1.392030e+001  1.077986e+001  7.913124e+000
      vertex -1.421320e+001  1.037161e+001  8.490474e+000
    endloop
  endfacet
  facet normal -8.017786e-007 -8.164971e-001 -5.773494e-001
    outer loop
      vertex -2.517294e+001  1.555879e+001  1.154701e+000
      vertex -1.421320e+001  1.037161e+001  8.490474e+000
      vertex -1.392030e+001  9.963367e+000  9.067824e+000
    endloop
  endfacet
  facet normal  1.004847e-007 -8.164966e-001 -5.773503e-001
    outer loop
      vertex -2.517294e+001  1.555879e+001  1.154701e+000
      vertex -1.392030e+001  9.963367e+000  9.067824e+000
      vertex -1.538284e+001  5.768684e+000  1.500000e+001
    endloop
  endfacet
  facet normal -5.975609e-007  8.164966e-001  5.773502e-001
    outer loop
      vertex -1.456634e+001  3.319195e+000  1.500000e+001
      vertex -1.321320e+001  8.161271e+000  8.152270e+000
      vertex -1.392030e+001  8.330373e+000  7.913124e+000
    endloop
  endfacet
  facet normal  1.094731e-015  8.164966e-001  5.773503e-001
    outer loop
      vertex -9.805936e+000  1.392580e+001  1.947893e-014
      vertex -2.517294e+001  1.392580e+001  4.861678e-014
      vertex -1.321320e+001  9.315971e+000  6.519277e+000
    endloop
  endfacet
  facet normal -5.500701e-007  8.164967e-001  5.773501e-001
    outer loop
      vertex -9.805936e+000  1.392580e+001  1.947893e-014
      vertex -1.321320e+001  9.315971e+000  6.519277e+000
      vertex -1.250609e+001  9.146870e+000  6.758423e+000
    endloop
  endfacet
  facet normal -3.761808e-007  8.164966e-001  5.773501e-001
    outer loop
      vertex -9.805936e+000  1.392580e+001  1.947893e-014
      vertex -1.250609e+001  9.146870e+000  6.758423e+000
      vertex -1.221320e+001  8.738622e+000  7.335773e+000
    endloop
  endfacet
  facet normal  1.241740e-007  8.164966e-001  5.773503e-001
    outer loop
      vertex -9.805936e+000  1.392580e+001  1.947893e-014
      vertex -1.221320e+001  8.738622e+000  7.335773e+000
      vertex -9.805936e+000  3.319195e+000  1.500000e+001
    endloop
  endfacet
  facet normal -1.162246e-006  8.164964e-001  5.773506e-001
    outer loop
      vertex -9.805936e+000  3.319195e+000  1.500000e+001
      vertex -1.221320e+001  8.738622e+000  7.335773e+000
      vertex -1.250609e+001  8.330373e+000  7.913124e+000
    endloop
  endfacet
  facet normal  5.456699e-007  8.164967e-001  5.773501e-001
    outer loop
      vertex -9.805936e+000  3.319195e+000  1.500000e+001
      vertex -1.250609e+001  8.330373e+000  7.913124e+000
      vertex -1.321320e+001  8.161271e+000  8.152270e+000
    endloop
  endfacet
  facet normal  0.000000e+000  8.164966e-001  5.773503e-001
    outer loop
      vertex -9.805936e+000  3.319195e+000  1.500000e+001
      vertex -1.321320e+001  8.161271e+000  8.152270e+000
      vertex -1.456634e+001  3.319195e+000  1.500000e+001
    endloop
  endfacet
  facet normal  4.857063e-008  8.164966e-001  5.773503e-001
    outer loop
      vertex -2.517294e+001  1.392580e+001  4.861678e-014
      vertex -1.456634e+001  3.319195e+000  1.500000e+001
      vertex -1.392030e+001  8.330373e+000  7.913124e+000
    endloop
  endfacet
  facet normal -1.048350e-006  8.164959e-001  5.773513e-001
    outer loop
      vertex -2.517294e+001  1.392580e+001  4.861678e-014
      vertex -1.392030e+001  8.330373e+000  7.913124e+000
      vertex -1.421320e+001  8.738622e+000  7.335773e+000
    endloop
  endfacet
  facet normal  1.570384e-007  8.164968e-001  5.773501e-001
    outer loop
      vertex -2.517294e+001  1.392580e+001  4.861678e-014
      vertex -1.421320e+001  8.738622e+000  7.335773e+000
      vertex -1.392030e+001  9.146870e+000  6.758423e+000
    endloop
  endfacet
  facet normal  3.994592e-007  8.164969e-001  5.773498e-001
    outer loop
      vertex -2.517294e+001  1.392580e+001  4.861678e-014
      vertex -1.392030e+001  9.146870e+000  6.758423e+000
      vertex -1.321320e+001  9.315971e+000  6.519277e+000
    endloop
  endfacet
  facet normal  3.781991e-007 -8.164966e-001 -5.773501e-001
    outer loop
      vertex -9.805936e+000  1.192580e+001  0.000000e+000
      vertex -1.221320e+001  7.405288e+000  6.392964e+000
      vertex -1.250609e+001  7.813536e+000  5.815614e+000
    endloop
  endfacet
  facet normal  2.989523e-008 -8.164966e-001 -5.773503e-001
    outer loop
      vertex -1.256634e+001  1.319195e+000  1.500000e+001
      vertex -2.317294e+001  1.192580e+001 -5.329071e-015
      vertex -1.421320e+001  7.405288e+000  6.392964e+000
    endloop
  endfacet
  facet normal -9.618016e-007 -8.164967e-001 -5.773501e-001
    outer loop
      vertex -1.256634e+001  1.319195e+000  1.500000e+001
      vertex -1.421320e+001  7.405288e+000  6.392964e+000
      vertex -1.392030e+001  6.997040e+000  6.970315e+000
    endloop
  endfacet
  facet normal -3.442456e-007 -8.164966e-001 -5.773502e-001
    outer loop
      vertex -1.256634e+001  1.319195e+000  1.500000e+001
      vertex -1.392030e+001  6.997040e+000  6.970315e+000
      vertex -1.321320e+001  6.827938e+000  7.209461e+000
    endloop
  endfacet
  facet normal  3.138149e-007 -8.164966e-001 -5.773502e-001
    outer loop
      vertex -1.256634e+001  1.319195e+000  1.500000e+001
      vertex -1.321320e+001  6.827938e+000  7.209461e+000
      vertex -1.250609e+001  6.997040e+000  6.970315e+000
    endloop
  endfacet
  facet normal  7.203537e-007 -8.164966e-001 -5.773502e-001
    outer loop
      vertex -1.256634e+001  1.319195e+000  1.500000e+001
      vertex -1.250609e+001  6.997040e+000  6.970315e+000
      vertex -1.221320e+001  7.405288e+000  6.392964e+000
    endloop
  endfacet
  facet normal -1.078272e-007 -8.164966e-001 -5.773503e-001
    outer loop
      vertex -1.256634e+001  1.319195e+000  1.500000e+001
      vertex -1.221320e+001  7.405288e+000  6.392964e+000
      vertex -9.805936e+000  1.192580e+001  0.000000e+000
    endloop
  endfacet
  facet normal  0.000000e+000 -8.164966e-001 -5.773503e-001
    outer loop
      vertex -1.256634e+001  1.319195e+000  1.500000e+001
      vertex -9.805936e+000  1.192580e+001  0.000000e+000
      vertex -9.805936e+000  1.319195e+000  1.500000e+001
    endloop
  endfacet
  facet normal  2.301742e-016 -8.164965e-001 -5.773502e-001
    outer loop
      vertex -2.317294e+001  1.192580e+001 -5.329071e-015
      vertex -9.805936e+000  1.192580e+001  0.000000e+000
      vertex -1.250609e+001  7.813536e+000  5.815614e+000
    endloop
  endfacet
  facet normal -8.076406e-007 -8.164972e-001 -5.773492e-001
    outer loop
      vertex -2.317294e+001  1.192580e+001 -5.329071e-015
      vertex -1.250609e+001  7.813536e+000  5.815614e+000
      vertex -1.321320e+001  7.982638e+000  5.576468e+000
    endloop
  endfacet
  facet normal  1.993655e-007 -8.164964e-001 -5.773505e-001
    outer loop
      vertex -2.317294e+001  1.192580e+001 -5.329071e-015
      vertex -1.321320e+001  7.982638e+000  5.576468e+000
      vertex -1.392030e+001  7.813536e+000  5.815614e+000
    endloop
  endfacet
  facet normal -1.751215e-007 -8.164967e-001 -5.773501e-001
    outer loop
      vertex -2.317294e+001  1.192580e+001 -5.329071e-015
      vertex -1.392030e+001  7.813536e+000  5.815614e+000
      vertex -1.421320e+001  7.405288e+000  6.392964e+000
    endloop
  endfacet
  facet normal -5.334020e-001  3.826844e-001 -7.543441e-001
    outer loop
      vertex -2.288763e+001  3.070961e+000  9.783956e+000
      vertex -2.160107e+001  2.363854e+000  8.515495e+000
      vertex -2.305674e+001  2.363854e+000  9.544809e+000
    endloop
  endfacet
  facet normal -2.209423e-001  9.238796e-001 -3.124595e-001
    outer loop
      vertex -2.305674e+001  2.363854e+000  9.544809e+000
      vertex -2.160107e+001  2.363854e+000  8.515495e+000
      vertex -2.200932e+001  2.070961e+000  7.938145e+000
    endloop
  endfacet
  facet normal -2.209427e-001  9.238794e-001 -3.124597e-001
    outer loop
      vertex -2.305674e+001  2.363854e+000  9.544809e+000
      vertex -2.200932e+001  2.070961e+000  7.938145e+000
      vertex -2.346498e+001  2.070961e+000  8.967459e+000
    endloop
  endfacet
  facet normal -5.334027e-001  3.826832e-001 -7.543441e-001
    outer loop
      vertex -2.160107e+001  2.363854e+000  8.515495e+000
      vertex -2.288763e+001  3.070961e+000  9.783956e+000
      vertex -2.143197e+001  3.070961e+000  8.754642e+000
    endloop
  endfacet
  facet normal -5.334025e-001 -3.826844e-001 -7.543437e-001
    outer loop
      vertex -2.143197e+001  3.070961e+000  8.754642e+000
      vertex -2.288763e+001  3.070961e+000  9.783956e+000
      vertex -2.305674e+001  3.778068e+000  9.544809e+000
    endloop
  endfacet
  facet normal -5.334023e-001 -3.826832e-001 -7.543445e-001
    outer loop
      vertex -2.143197e+001  3.070961e+000  8.754642e+000
      vertex -2.305674e+001  3.778068e+000  9.544809e+000
      vertex -2.160107e+001  3.778068e+000  8.515495e+000
    endloop
  endfacet
  facet normal -2.209425e-001 -9.238794e-001 -3.124598e-001
    outer loop
      vertex -2.160107e+001  3.778068e+000  8.515495e+000
      vertex -2.305674e+001  3.778068e+000  9.544809e+000
      vertex -2.346498e+001  4.070961e+000  8.967459e+000
    endloop
  endfacet
  facet normal -2.209425e-001 -9.238796e-001 -3.124594e-001
    outer loop
      vertex -2.160107e+001  3.778068e+000  8.515495e+000
      vertex -2.346498e+001  4.070961e+000  8.967459e+000
      vertex -2.200932e+001  4.070961e+000  7.938145e+000
    endloop
  endfacet
  facet normal -5.334020e-001  3.826831e-001 -7.543446e-001
    outer loop
      vertex -1.979897e+001  3.070961e+000  7.599941e+000
      vertex -1.863474e+001  2.363854e+000  6.417986e+000
      vertex -1.996807e+001  2.363854e+000  7.360795e+000
    endloop
  endfacet
  facet normal -2.209422e-001  9.238796e-001 -3.124596e-001
    outer loop
      vertex -1.996807e+001  2.363854e+000  7.360795e+000
      vertex -1.863474e+001  2.363854e+000  6.417986e+000
      vertex -1.904299e+001  2.070961e+000  5.840636e+000
    endloop
  endfacet
  facet normal -2.209422e-001  9.238796e-001 -3.124596e-001
    outer loop
      vertex -1.996807e+001  2.363854e+000  7.360795e+000
      vertex -1.904299e+001  2.070961e+000  5.840636e+000
      vertex -2.037632e+001  2.070961e+000  6.783445e+000
    endloop
  endfacet
  facet normal -5.334020e-001  3.826831e-001 -7.543446e-001
    outer loop
      vertex -1.863474e+001  2.363854e+000  6.417986e+000
      vertex -1.979897e+001  3.070961e+000  7.599941e+000
      vertex -1.846564e+001  3.070961e+000  6.657132e+000
    endloop
  endfacet
  facet normal -5.334020e-001 -3.826831e-001 -7.543446e-001
    outer loop
      vertex -1.846564e+001  3.070961e+000  6.657132e+000
      vertex -1.979897e+001  3.070961e+000  7.599941e+000
      vertex -1.996807e+001  3.778068e+000  7.360795e+000
    endloop
  endfacet
  facet normal -5.334020e-001 -3.826831e-001 -7.543446e-001
    outer loop
      vertex -1.846564e+001  3.070961e+000  6.657132e+000
      vertex -1.996807e+001  3.778068e+000  7.360795e+000
      vertex -1.863474e+001  3.778068e+000  6.417986e+000
    endloop
  endfacet
  facet normal -2.209422e-001 -9.238796e-001 -3.124596e-001
    outer loop
      vertex -1.863474e+001  3.778068e+000  6.417986e+000
      vertex -1.996807e+001  3.778068e+000  7.360795e+000
      vertex -2.037632e+001  4.070961e+000  6.783445e+000
    endloop
  endfacet
  facet normal -2.209422e-001 -9.238796e-001 -3.124596e-001
    outer loop
      vertex -1.863474e+001  3.778068e+000  6.417986e+000
      vertex -2.037632e+001  4.070961e+000  6.783445e+000
      vertex -1.904299e+001  4.070961e+000  5.840636e+000
    endloop
  endfacet
  facet normal  5.334020e-001 -3.826832e-001  7.543448e-001
    outer loop
      vertex -2.404234e+001  3.070961e+000  8.150962e+000
      vertex -2.241756e+001  3.778068e+000  7.360795e+000
      vertex -2.387323e+001  3.778068e+000  8.390108e+000
    endloop
  endfacet
  facet normal  2.209425e-001 -9.238793e-001  3.124600e-001
    outer loop
      vertex -2.387323e+001  3.778068e+000  8.390108e+000
      vertex -2.241756e+001  3.778068e+000  7.360795e+000
      vertex -2.200932e+001  4.070961e+000  7.938145e+000
    endloop
  endfacet
  facet normal  2.209423e-001 -9.238796e-001  3.124593e-001
    outer loop
      vertex -2.387323e+001  3.778068e+000  8.390108e+000
      vertex -2.200932e+001  4.070961e+000  7.938145e+000
      vertex -2.346498e+001  4.070961e+000  8.967459e+000
    endloop
  endfacet
  facet normal  5.334020e-001 -3.826832e-001  7.543448e-001
    outer loop
      vertex -2.241756e+001  3.778068e+000  7.360795e+000
      vertex -2.404234e+001  3.070961e+000  8.150962e+000
      vertex -2.258667e+001  3.070961e+000  7.121649e+000
    endloop
  endfacet
  facet normal  5.334020e-001  3.826832e-001  7.543448e-001
    outer loop
      vertex -2.258667e+001  3.070961e+000  7.121649e+000
      vertex -2.404234e+001  3.070961e+000  8.150962e+000
      vertex -2.387323e+001  2.363854e+000  8.390108e+000
    endloop
  endfacet
  facet normal  5.334020e-001  3.826832e-001  7.543448e-001
    outer loop
      vertex -2.258667e+001  3.070961e+000  7.121649e+000
      vertex -2.387323e+001  2.363854e+000  8.390108e+000
      vertex -2.241756e+001  2.363854e+000  7.360795e+000
    endloop
  endfacet
  facet normal  2.209421e-001  9.238797e-001  3.124595e-001
    outer loop
      vertex -2.241756e+001  2.363854e+000  7.360795e+000
      vertex -2.387323e+001  2.363854e+000  8.390108e+000
      vertex -2.346498e+001  2.070961e+000  8.967459e+000
    endloop
  endfacet
  facet normal  2.209428e-001  9.238794e-001  3.124599e-001
    outer loop
      vertex -2.241756e+001  2.363854e+000  7.360795e+000
      vertex -2.346498e+001  2.070961e+000  8.967459e+000
      vertex -2.200932e+001  2.070961e+000  7.938145e+000
    endloop
  endfacet
  facet normal  5.334021e-001 -3.826848e-001  7.543437e-001
    outer loop
      vertex -2.095367e+001  3.070961e+000  5.966948e+000
      vertex -1.945124e+001  3.778068e+000  5.263286e+000
      vertex -2.078457e+001  3.778068e+000  6.206095e+000
    endloop
  endfacet
  facet normal  2.209424e-001 -9.238796e-001  3.124594e-001
    outer loop
      vertex -2.078457e+001  3.778068e+000  6.206095e+000
      vertex -1.945124e+001  3.778068e+000  5.263286e+000
      vertex -1.904299e+001  4.070961e+000  5.840636e+000
    endloop
  endfacet
  facet normal  2.209425e-001 -9.238794e-001  3.124600e-001
    outer loop
      vertex -2.078457e+001  3.778068e+000  6.206095e+000
      vertex -1.904299e+001  4.070961e+000  5.840636e+000
      vertex -2.037632e+001  4.070961e+000  6.783445e+000
    endloop
  endfacet
  facet normal  5.334018e-001 -3.826832e-001  7.543448e-001
    outer loop
      vertex -1.945124e+001  3.778068e+000  5.263286e+000
      vertex -2.095367e+001  3.070961e+000  5.966948e+000
      vertex -1.962034e+001  3.070961e+000  5.024139e+000
    endloop
  endfacet
  facet normal  5.334014e-001  3.826848e-001  7.543442e-001
    outer loop
      vertex -1.962034e+001  3.070961e+000  5.024139e+000
      vertex -2.095367e+001  3.070961e+000  5.966948e+000
      vertex -2.078457e+001  2.363854e+000  6.206095e+000
    endloop
  endfacet
  facet normal  5.334026e-001  3.826832e-001  7.543443e-001
    outer loop
      vertex -1.962034e+001  3.070961e+000  5.024139e+000
      vertex -2.078457e+001  2.363854e+000  6.206095e+000
      vertex -1.945124e+001  2.363854e+000  5.263286e+000
    endloop
  endfacet
  facet normal  2.209427e-001  9.238794e-001  3.124599e-001
    outer loop
      vertex -1.945124e+001  2.363854e+000  5.263286e+000
      vertex -2.078457e+001  2.363854e+000  6.206095e+000
      vertex -2.037632e+001  2.070961e+000  6.783445e+000
    endloop
  endfacet
  facet normal  2.209422e-001  9.238796e-001  3.124596e-001
    outer loop
      vertex -1.945124e+001  2.363854e+000  5.263286e+000
      vertex -2.037632e+001  2.070961e+000  6.783445e+000
      vertex -1.904299e+001  2.070961e+000  5.840636e+000
    endloop
  endfacet
  facet normal  8.164963e-001  8.683713e-007 -5.773507e-001
    outer loop
      vertex -1.945124e+001  2.363854e+000  5.263286e+000
      vertex -1.904299e+001  2.070961e+000  5.840636e+000
      vertex -2.317294e+001 -1.441210e+000 -8.881784e-015
    endloop
  endfacet
  facet normal  8.164966e-001  0.000000e+000 -5.773503e-001
    outer loop
      vertex -1.256634e+001  1.319195e+000  1.500000e+001
      vertex -1.256634e+001 -1.441210e+000  1.500000e+001
      vertex -2.317294e+001 -1.441210e+000 -8.881784e-015
    endloop
  endfacet
  facet normal  8.164966e-001 -7.418034e-008 -5.773503e-001
    outer loop
      vertex -1.256634e+001  1.319195e+000  1.500000e+001
      vertex -2.317294e+001 -1.441210e+000 -8.881784e-015
      vertex -1.904299e+001  2.070961e+000  5.840636e+000
    endloop
  endfacet
  facet normal  8.164966e-001 -1.770436e-006 -5.773504e-001
    outer loop
      vertex -1.256634e+001  1.319195e+000  1.500000e+001
      vertex -1.904299e+001  2.070961e+000  5.840636e+000
      vertex -1.863474e+001  2.363854e+000  6.417986e+000
    endloop
  endfacet
  facet normal  8.164967e-001  2.017228e-007 -5.773502e-001
    outer loop
      vertex -1.256634e+001  1.319195e+000  1.500000e+001
      vertex -1.863474e+001  2.363854e+000  6.417986e+000
      vertex -1.846564e+001  3.070961e+000  6.657132e+000
    endloop
  endfacet
  facet normal  8.164966e-001 -2.325629e-007 -5.773503e-001
    outer loop
      vertex -1.256634e+001  1.319195e+000  1.500000e+001
      vertex -1.846564e+001  3.070961e+000  6.657132e+000
      vertex -1.863474e+001  3.778068e+000  6.417986e+000
    endloop
  endfacet
  facet normal  8.164973e-001  4.898673e-006 -5.773493e-001
    outer loop
      vertex -1.256634e+001  1.319195e+000  1.500000e+001
      vertex -1.863474e+001  3.778068e+000  6.417986e+000
      vertex -1.904299e+001  4.070961e+000  5.840636e+000
    endloop
  endfacet
  facet normal  8.164966e-001  7.731744e-008 -5.773503e-001
    outer loop
      vertex -1.256634e+001  1.319195e+000  1.500000e+001
      vertex -1.904299e+001  4.070961e+000  5.840636e+000
      vertex -2.317294e+001  1.192580e+001 -5.329071e-015
    endloop
  endfacet
  facet normal  8.164963e-001 -5.197758e-007 -5.773508e-001
    outer loop
      vertex -2.317294e+001  1.192580e+001 -5.329071e-015
      vertex -1.904299e+001  4.070961e+000  5.840636e+000
      vertex -1.945124e+001  3.778068e+000  5.263286e+000
    endloop
  endfacet
  facet normal  8.164967e-001  1.407994e-007 -5.773501e-001
    outer loop
      vertex -2.317294e+001  1.192580e+001 -5.329071e-015
      vertex -1.945124e+001  3.778068e+000  5.263286e+000
      vertex -1.962034e+001  3.070961e+000  5.024139e+000
    endloop
  endfacet
  facet normal  8.164961e-001 -5.563478e-007 -5.773509e-001
    outer loop
      vertex -2.317294e+001  1.192580e+001 -5.329071e-015
      vertex -1.962034e+001  3.070961e+000  5.024139e+000
      vertex -1.945124e+001  2.363854e+000  5.263286e+000
    endloop
  endfacet
  facet normal  8.164966e-001  0.000000e+000 -5.773502e-001
    outer loop
      vertex -2.317294e+001  1.192580e+001 -5.329071e-015
      vertex -1.945124e+001  2.363854e+000  5.263286e+000
      vertex -2.317294e+001 -1.441210e+000 -8.881784e-015
    endloop
  endfacet
  facet normal -8.164970e-001  1.608184e-006  5.773497e-001
    outer loop
      vertex -2.517294e+001 -1.441210e+000  4.865221e-014
      vertex -2.037632e+001  2.070961e+000  6.783445e+000
      vertex -2.078457e+001  2.363854e+000  6.206095e+000
    endloop
  endfacet
  facet normal -8.164962e-001 -1.275624e-006  5.773509e-001
    outer loop
      vertex -2.517294e+001 -1.441210e+000  4.865221e-014
      vertex -2.078457e+001  2.363854e+000  6.206095e+000
      vertex -2.095367e+001  3.070961e+000  5.966948e+000
    endloop
  endfacet
  facet normal -8.164966e-001  0.000000e+000  5.773502e-001
    outer loop
      vertex -2.517294e+001 -1.441210e+000  4.865221e-014
      vertex -2.095367e+001  3.070961e+000  5.966948e+000
      vertex -2.517294e+001  1.392580e+001  4.861678e-014
    endloop
  endfacet
  facet normal -8.164958e-001  9.917123e-007  5.773514e-001
    outer loop
      vertex -2.517294e+001  1.392580e+001  4.861678e-014
      vertex -2.095367e+001  3.070961e+000  5.966948e+000
      vertex -2.078457e+001  3.778068e+000  6.206095e+000
    endloop
  endfacet
  facet normal -8.164972e-001 -8.410303e-007  5.773494e-001
    outer loop
      vertex -2.517294e+001  1.392580e+001  4.861678e-014
      vertex -2.078457e+001  3.778068e+000  6.206095e+000
      vertex -2.037632e+001  4.070961e+000  6.783445e+000
    endloop
  endfacet
  facet normal -8.164958e-001  1.109404e-006  5.773513e-001
    outer loop
      vertex -2.517294e+001  1.392580e+001  4.861678e-014
      vertex -2.037632e+001  4.070961e+000  6.783445e+000
      vertex -1.996807e+001  3.778068e+000  7.360795e+000
    endloop
  endfacet
  facet normal -8.164966e-001 -4.025059e-008  5.773502e-001
    outer loop
      vertex -2.517294e+001  1.392580e+001  4.861678e-014
      vertex -1.996807e+001  3.778068e+000  7.360795e+000
      vertex -1.456634e+001  3.319195e+000  1.500000e+001
    endloop
  endfacet
  facet normal -8.164966e-001  0.000000e+000  5.773503e-001
    outer loop
      vertex -1.456634e+001 -1.441210e+000  1.500000e+001
      vertex -1.456634e+001  3.319195e+000  1.500000e+001
      vertex -1.996807e+001  3.778068e+000  7.360795e+000
    endloop
  endfacet
  facet normal -8.164965e-001  3.003556e-007  5.773504e-001
    outer loop
      vertex -1.456634e+001 -1.441210e+000  1.500000e+001
      vertex -1.996807e+001  3.778068e+000  7.360795e+000
      vertex -1.979897e+001  3.070961e+000  7.599941e+000
    endloop
  endfacet
  facet normal -8.164966e-001 -1.976561e-007  5.773502e-001
    outer loop
      vertex -1.456634e+001 -1.441210e+000  1.500000e+001
      vertex -1.979897e+001  3.070961e+000  7.599941e+000
      vertex -1.996807e+001  2.363854e+000  7.360795e+000
    endloop
  endfacet
  facet normal -8.164964e-001  1.014231e-006  5.773506e-001
    outer loop
      vertex -1.456634e+001 -1.441210e+000  1.500000e+001
      vertex -1.996807e+001  2.363854e+000  7.360795e+000
      vertex -2.037632e+001  2.070961e+000  6.783445e+000
    endloop
  endfacet
  facet normal -8.164966e-001 -1.421459e-007  5.773503e-001
    outer loop
      vertex -1.456634e+001 -1.441210e+000  1.500000e+001
      vertex -2.037632e+001  2.070961e+000  6.783445e+000
      vertex -2.517294e+001 -1.441210e+000  4.865221e-014
    endloop
  endfacet
  facet normal  8.164965e-001  0.000000e+000 -5.773504e-001
    outer loop
      vertex -2.680594e+001 -1.441210e+000  1.154701e+000
      vertex -2.680594e+001  1.392580e+001  1.154701e+000
      vertex -2.258667e+001  3.070961e+000  7.121649e+000
    endloop
  endfacet
  facet normal  8.164966e-001 -2.260668e-007 -5.773502e-001
    outer loop
      vertex -2.680594e+001 -1.441210e+000  1.154701e+000
      vertex -2.258667e+001  3.070961e+000  7.121649e+000
      vertex -2.241756e+001  2.363854e+000  7.360795e+000
    endloop
  endfacet
  facet normal  8.164970e-001 -1.608184e-006 -5.773497e-001
    outer loop
      vertex -2.680594e+001 -1.441210e+000  1.154701e+000
      vertex -2.241756e+001  2.363854e+000  7.360795e+000
      vertex -2.200932e+001  2.070961e+000  7.938145e+000
    endloop
  endfacet
  facet normal  8.164965e-001 -3.843568e-009 -5.773503e-001
    outer loop
      vertex -2.680594e+001  1.392580e+001  1.154701e+000
      vertex -1.701583e+001  4.135691e+000  1.500000e+001
      vertex -2.160107e+001  3.778068e+000  8.515495e+000
    endloop
  endfacet
  facet normal  8.164958e-001 -1.109404e-006 -5.773513e-001
    outer loop
      vertex -2.680594e+001  1.392580e+001  1.154701e+000
      vertex -2.160107e+001  3.778068e+000  8.515495e+000
      vertex -2.200932e+001  4.070961e+000  7.938145e+000
    endloop
  endfacet
  facet normal  8.164971e-001  8.617357e-007 -5.773494e-001
    outer loop
      vertex -2.680594e+001  1.392580e+001  1.154701e+000
      vertex -2.200932e+001  4.070961e+000  7.938145e+000
      vertex -2.241756e+001  3.778068e+000  7.360795e+000
    endloop
  endfacet
  facet normal  8.164967e-001  1.757520e-007 -5.773501e-001
    outer loop
      vertex -2.680594e+001  1.392580e+001  1.154701e+000
      vertex -2.241756e+001  3.778068e+000  7.360795e+000
      vertex -2.258667e+001  3.070961e+000  7.121649e+000
    endloop
  endfacet
  facet normal  8.164966e-001  8.550120e-008 -5.773503e-001
    outer loop
      vertex -1.701583e+001 -1.441210e+000  1.500000e+001
      vertex -2.680594e+001 -1.441210e+000  1.154701e+000
      vertex -2.200932e+001  2.070961e+000  7.938145e+000
    endloop
  endfacet
  facet normal  8.164964e-001 -8.784645e-007 -5.773506e-001
    outer loop
      vertex -1.701583e+001 -1.441210e+000  1.500000e+001
      vertex -2.200932e+001  2.070961e+000  7.938145e+000
      vertex -2.160107e+001  2.363854e+000  8.515495e+000
    endloop
  endfacet
  facet normal  8.164966e-001  2.092409e-007 -5.773502e-001
    outer loop
      vertex -1.701583e+001 -1.441210e+000  1.500000e+001
      vertex -2.160107e+001  2.363854e+000  8.515495e+000
      vertex -2.143197e+001  3.070961e+000  8.754642e+000
    endloop
  endfacet
  facet normal  8.164965e-001 -3.445605e-007 -5.773505e-001
    outer loop
      vertex -1.701583e+001 -1.441210e+000  1.500000e+001
      vertex -2.143197e+001  3.070961e+000  8.754642e+000
      vertex -2.160107e+001  3.778068e+000  8.515495e+000
    endloop
  endfacet
  facet normal  8.164966e-001  0.000000e+000 -5.773503e-001
    outer loop
      vertex -1.701583e+001 -1.441210e+000  1.500000e+001
      vertex -2.160107e+001  3.778068e+000  8.515495e+000
      vertex -1.701583e+001  4.135691e+000  1.500000e+001
    endloop
  endfacet
  facet normal  0.000000e+000 -5.773503e-001  8.164965e-001
    outer loop
      vertex -2.517294e+001  1.555879e+001  1.154701e+000
      vertex -2.517294e+001  1.392580e+001  4.861678e-014
      vertex -9.805936e+000  1.555879e+001  1.154701e+000
    endloop
  endfacet
  facet normal  0.000000e+000 -5.773503e-001  8.164965e-001
    outer loop
      vertex -9.805936e+000  1.555879e+001  1.154701e+000
      vertex -2.517294e+001  1.392580e+001  4.861678e-014
      vertex -9.805936e+000  1.392580e+001  1.947893e-014
    endloop
  endfacet
  facet normal  8.660254e-001  2.886752e-001 -4.082482e-001
    outer loop
      vertex -1.538284e+001  5.768684e+000  1.500000e+001
      vertex -1.456634e+001  3.319195e+000  1.500000e+001
      vertex -2.517294e+001  1.555879e+001  1.154701e+000
    endloop
  endfacet
  facet normal  8.660254e-001  2.886752e-001 -4.082482e-001
    outer loop
      vertex -2.517294e+001  1.555879e+001  1.154701e+000
      vertex -1.456634e+001  3.319195e+000  1.500000e+001
      vertex -2.517294e+001  1.392580e+001  4.861678e-014
    endloop
  endfacet
  facet normal  0.000000e+000  0.000000e+000  1.000000e+000
    outer loop
      vertex -1.256634e+001 -1.441210e+000  1.500000e+001
      vertex -1.256634e+001  1.319195e+000  1.500000e+001
      vertex -1.456634e+001 -1.441210e+000  1.500000e+001
    endloop
  endfacet
  facet normal  0.000000e+000  0.000000e+000  1.000000e+000
    outer loop
      vertex -1.456634e+001 -1.441210e+000  1.500000e+001
      vertex -1.256634e+001  1.319195e+000  1.500000e+001
      vertex -1.456634e+001  3.319195e+000  1.500000e+001
    endloop
  endfacet
  facet normal  0.000000e+000  0.000000e+000  1.000000e+000
    outer loop
      vertex -1.256634e+001  1.319195e+000  1.500000e+001
      vertex -9.805936e+000  1.319195e+000  1.500000e+001
      vertex -1.456634e+001  3.319195e+000  1.500000e+001
    endloop
  endfacet
  facet normal  -0.000000e+000  0.000000e+000  1.000000e+000
    outer loop
      vertex -1.456634e+001  3.319195e+000  1.500000e+001
      vertex -9.805936e+000  1.319195e+000  1.500000e+001
      vertex -9.805936e+000  3.319195e+000  1.500000e+001
    endloop
  endfacet
  facet normal -2.886751e-001 -8.660254e-001 -4.082484e-001
    outer loop
      vertex -2.680594e+001  1.392580e+001  1.154701e+000
      vertex -2.517294e+001  1.392580e+001  4.861678e-014
      vertex -1.701583e+001  4.135691e+000  1.500000e+001
    endloop
  endfacet
  facet normal -2.886751e-001 -8.660254e-001 -4.082484e-001
    outer loop
      vertex -1.701583e+001  4.135691e+000  1.500000e+001
      vertex -2.517294e+001  1.392580e+001  4.861678e-014
      vertex -1.456634e+001  3.319195e+000  1.500000e+001
    endloop
  endfacet
  facet normal  5.773501e-001  0.000000e+000  8.164967e-001
    outer loop
      vertex -2.680594e+001 -1.441210e+000  1.154701e+000
      vertex -2.517294e+001 -1.441210e+000  4.865221e-014
      vertex -2.680594e+001  1.392580e+001  1.154701e+000
    endloop
  endfacet
  facet normal  5.773501e-001  0.000000e+000  8.164967e-001
    outer loop
      vertex -2.680594e+001  1.392580e+001  1.154701e+000
      vertex -2.517294e+001 -1.441210e+000  4.865221e-014
      vertex -2.517294e+001  1.392580e+001  4.861678e-014
    endloop
  endfacet
endsolid CATIA STL
